<?xml version="1.0" encoding="utf-8"?>
<!-- Generator: Adobe Illustrator 24.3.0, SVG Export Plug-In . SVG Version: 6.00 Build 0)  -->
<svg version="1.1" id="レイヤー_1" xmlns="http://www.w3.org/2000/svg" xmlns:xlink="http://www.w3.org/1999/xlink" x="0px"
	 y="0px" viewBox="0 0 29.1 20.3" style="enable-background:new 0 0 29.1 20.3;" xml:space="preserve">
<style type="text/css">
	.st0{fill-rule:evenodd;clip-rule:evenodd;fill:#33AC1B;}
</style>
<g>
	<path class="st0" d="M28.5,8.7L28.5,8.7l-8.1-8.1c-0.8-0.7-2.1-0.7-2.8,0.1c-0.7,0.8-0.7,1.9,0,2.7l6.7,6.7l-6.7,6.7
		c-0.8,0.8-0.8,2,0,2.8s2,0.8,2.8,0l8.1-8.1l0,0c0.4-0.4,0.6-0.9,0.6-1.4C29.1,9.6,28.9,9.1,28.5,8.7z"/>
	<path class="st0" d="M14,8.1H2c-1.1,0-2,0.9-2,2s0.9,2,2,2h12c1.1,0,2-0.9,2-2S15.1,8.1,14,8.1z"/>
</g>
</svg>
