<?xml version="1.0" encoding="utf-8"?>
<!-- Generator: Adobe Illustrator 25.0.0, SVG Export Plug-In . SVG Version: 6.00 Build 0)  -->
<svg version="1.1" id="レイヤー_1" xmlns="http://www.w3.org/2000/svg" xmlns:xlink="http://www.w3.org/1999/xlink" x="0px"
	 y="0px" viewBox="0 0 20.1 12.1" style="enable-background:new 0 0 20.1 12.1;" xml:space="preserve">
<style type="text/css">
	.st0{fill:#33AC1B;}
</style>
<g>
	<path class="st0" d="M19.6,0.6c-0.8-0.8-2-0.8-2.8,0c0,0,0,0,0,0l-6.7,6.6l1.5,1.5c0.6,0.6,0.8,1.6,0.4,2.3l7.6-7.7
		C20.3,2.6,20.3,1.4,19.6,0.6z"/>
	<path class="st0" d="M8.2,11.1c0.1,0.2,0.2,0.4,0.4,0.5c0.4,0.4,0.9,0.6,1.5,0.6c-0.5,0-1-0.2-1.3-0.6L8.2,11.1z"/>
	<path class="st0" d="M11.6,8.7l-1.5-1.5L3.4,0.6c-0.8-0.8-2-0.8-2.8,0c-0.8,0.8-0.8,2,0,2.8l7.6,7.6l0.5,0.5
		c0.4,0.4,0.8,0.6,1.3,0.6c0.6,0,1.1-0.2,1.5-0.6c0.1-0.2,0.3-0.3,0.4-0.5C12.3,10.3,12.2,9.3,11.6,8.7z"/>
</g>
</svg>
