<?xml version="1.0" encoding="utf-8"?>
<!-- Generator: Adobe Illustrator 24.3.0, SVG Export Plug-In . SVG Version: 6.00 Build 0)  -->
<svg version="1.1" id="レイヤー_1" xmlns="http://www.w3.org/2000/svg" xmlns:xlink="http://www.w3.org/1999/xlink" x="0px"
	 y="0px" viewBox="0 0 644 644" style="enable-background:new 0 0 644 644;" xml:space="preserve">
<style type="text/css">
	.st0{fill:#33AC1B;}
</style>
<path class="st0" d="M321.9,642.6h-0.3c-5.3,0-10.6-0.1-15.8-0.4l0.2-4c5.2,0.3,10.4,0.4,15.6,0.4h0.3V642.6z M346,641.7l-0.3-4
	c5.3-0.4,10.6-0.9,15.8-1.6l0.5,4C356.8,640.8,351.4,641.3,346,641.7z M281.7,640.2c-5.3-0.7-10.7-1.5-15.9-2.4l0.7-3.9
	c5.2,0.9,10.5,1.7,15.7,2.3L281.7,640.2z M385.9,636.2l-0.8-3.9c5.2-1,10.4-2.3,15.5-3.6l1,3.9C396.4,633.9,391.2,635.1,385.9,636.2
	L385.9,636.2z M242.1,632.7c-5.2-1.3-10.4-2.8-15.5-4.4l1.2-3.8c5,1.6,10.2,3,15.3,4.3L242.1,632.7z M424.8,625.6l-1.3-3.8
	c5-1.7,10-3.5,14.9-5.5l1.5,3.7C434.9,622,429.9,623.9,424.8,625.6L424.8,625.6z M203.8,620.3c-5-2-10-4.1-14.9-6.3l1.6-3.6
	c4.8,2.2,9.8,4.3,14.7,6.2L203.8,620.3z M462,610.3l-1.7-3.6c4.7-2.3,9.5-4.8,14.1-7.3l1.9,3.5C471.6,605.5,466.8,608,462,610.3
	L462,610.3z M167.3,603.2c-4.7-2.6-9.4-5.3-13.9-8.1l2.1-3.4c4.5,2.8,9.1,5.5,13.8,8L167.3,603.2z M497,590.4l-2.2-3.3
	c4.4-2.9,8.8-5.9,13.1-9l2.3,3.2C505.9,584.4,501.5,587.5,497,590.4z M133.3,581.6c-4.3-3.1-8.6-6.4-12.8-9.8l2.5-3.1
	c4.1,3.3,8.4,6.6,12.6,9.7L133.3,581.6z M529.3,566.3l-2.6-3c4-3.4,8-7,11.9-10.6l2.7,2.9C537.3,559.2,533.3,562.8,529.3,566.3
	L529.3,566.3z M102.3,555.9c-3.9-3.7-7.8-7.5-11.5-11.3l2.9-2.8c3.7,3.8,7.5,7.6,11.3,11.2L102.3,555.9z M558.3,538.4l-2.9-2.7
	c3.6-3.9,7.1-8,10.5-12l3.1,2.5C565.4,530.3,561.8,534.4,558.3,538.4L558.3,538.4z M74.7,526.6c-3.4-4.1-6.8-8.4-10-12.7l3.2-2.4
	c3.1,4.2,6.4,8.5,9.8,12.5L74.7,526.6z M583.5,507l-3.3-2.3c3-4.3,6-8.8,8.9-13.2l3.4,2.1C589.6,498.1,586.6,502.7,583.5,507z
	 M50.9,494c-2.9-4.5-5.7-9.1-8.3-13.8l3.5-2c2.6,4.6,5.4,9.2,8.2,13.6L50.9,494z M604.7,472.7l-3.5-1.9c2.5-4.7,4.9-9.5,7.2-14.3
	l3.6,1.7C609.6,463.2,607.2,468,604.7,472.7L604.7,472.7z M31.4,458.8c-2.3-4.8-4.5-9.8-6.5-14.7l3.7-1.5c2,4.9,4.2,9.8,6.4,14.5
	L31.4,458.8z M621.4,436l-3.7-1.4c1.9-5,3.7-10,5.3-15l3.8,1.2C625.1,425.9,623.3,431,621.4,436L621.4,436z M16.6,421.4
	c-1.7-5.1-3.2-10.3-4.6-15.4l3.9-1c1.4,5.1,2.9,10.2,4.6,15.3L16.6,421.4z M633.3,397.5l-3.9-0.9c1.2-5.1,2.4-10.4,3.3-15.6l3.9,0.7
	C635.7,387,634.6,392.3,633.3,397.5z M6.5,382.5c-1-5.2-1.9-10.6-2.6-15.9l3.9-0.6c0.7,5.2,1.6,10.5,2.6,15.7L6.5,382.5z
	 M640.3,357.9l-4-0.5c0.6-5.2,1-10.6,1.4-15.9l4,0.2C641.4,347.2,640.9,352.6,640.3,357.9z M1.5,342.5c-0.3-5.3-0.5-10.8-0.6-16.1
	l4-0.1c0.1,5.3,0.3,10.6,0.6,15.9L1.5,342.5z M638.3,317.7c-0.1-5.3-0.3-10.6-0.6-15.9l4-0.3c0.3,5.3,0.5,10.8,0.6,16.1L638.3,317.7
	z M5.4,302.5l-4-0.2c0.3-5.4,0.8-10.8,1.4-16.1l4,0.4C6.2,291.9,5.7,297.2,5.4,302.5z M635.3,278.1c-0.7-5.2-1.6-10.5-2.6-15.7
	l3.9-0.8c1,5.3,1.9,10.6,2.6,15.9L635.3,278.1z M10.2,263l-3.9-0.7c1-5.3,2.1-10.6,3.4-15.8l3.9,0.9C12.3,252.6,11.2,257.8,10.2,263
	z M627.4,239.1c-1.4-5.1-2.9-10.3-4.5-15.3l3.8-1.2c1.7,5.1,3.2,10.3,4.6,15.4L627.4,239.1z M20,224.5l-3.8-1.2
	c1.7-5.1,3.5-10.3,5.4-15.3l3.7,1.4C23.5,214.4,21.7,219.4,20,224.5z M614.6,201.5c-2-4.9-4.2-9.8-6.4-14.5l3.6-1.7
	c2.3,4.8,4.5,9.8,6.5,14.7L614.6,201.5z M34.6,187.5l-3.6-1.7c2.3-4.9,4.7-9.7,7.2-14.4l3.5,1.9C39.3,177.8,36.9,182.6,34.6,187.5
	L34.6,187.5z M597.2,165.8c-2.6-4.6-5.4-9.2-8.2-13.6l3.4-2.1c2.9,4.5,5.7,9.1,8.3,13.8L597.2,165.8z M53.8,152.5l-3.4-2.1
	c2.9-4.5,5.9-9,9-13.4l3.3,2.3C59.6,143.6,56.6,148.1,53.8,152.5z M575.5,132.5c-3.2-4.2-6.5-8.4-9.8-12.5l3.1-2.5
	c3.4,4.1,6.8,8.4,10,12.7L575.5,132.5z M77.2,120.3l-3.1-2.5c3.4-4.1,7-8.2,10.6-12.2l2.9,2.7C84.1,112.2,80.5,116.3,77.2,120.3z
	 M549.7,102.2c-3.7-3.8-7.5-7.6-11.3-11.2l2.7-2.9c3.9,3.7,7.8,7.5,11.5,11.3L549.7,102.2z M104.4,91.3l-2.7-2.9
	c3.9-3.7,7.9-7.3,12-10.8l2.6,3C112.2,84.1,108.2,87.7,104.4,91.3z M520.4,75.3c-4.1-3.3-8.4-6.6-12.6-9.7l2.4-3.2
	c4.3,3.2,8.6,6.4,12.8,9.8L520.4,75.3z M135,65.9l-2.4-3.2c4.3-3.2,8.8-6.2,13.2-9.2l2.1,3.3C143.6,59.7,139.2,62.8,135,65.9z
	 M488,52.3c-4.5-2.8-9.1-5.5-13.8-8l1.9-3.5c4.7,2.6,9.4,5.3,13.9,8.1L488,52.3z M168.5,44.5l-1.9-3.5c4.7-2.6,9.5-5.1,14.3-7.4
	l1.8,3.6C177.8,39.5,173.1,41.9,168.5,44.5z M452.8,33.5c-4.8-2.2-9.8-4.3-14.7-6.3l1.5-3.7c5,2,10,4.1,14.9,6.3L452.8,33.5z
	 M204.4,27.5l-1.5-3.7c5-2,10.1-3.9,15.1-5.6l1.3,3.8C214.3,23.7,209.3,25.5,204.4,27.5L204.4,27.5z M415.6,19.3
	c-5-1.6-10.2-3-15.3-4.3l1-3.9c5.2,1.3,10.4,2.8,15.5,4.4L415.6,19.3z M242.2,15.1l-1-3.9c5.2-1.3,10.5-2.6,15.7-3.6l0.8,3.9
	C252.5,12.6,247.3,13.8,242.2,15.1z M377,9.9c-5.2-0.9-10.5-1.7-15.7-2.4l0.5-4c5.3,0.7,10.7,1.5,15.9,2.4L377,9.9z M281.2,7.7
	l-0.5-4c5.3-0.7,10.7-1.2,16-1.6l0.3,4C291.8,6.4,286.5,7,281.2,7.7z M337.5,5.5c-5.3-0.3-10.6-0.4-15.9-0.4h-0.6v-4h0.6
	c5.4,0,10.8,0.1,16.1,0.4L337.5,5.5z"/>
</svg>
