<?xml version="1.0" encoding="utf-8"?>
<!-- Generator: Adobe Illustrator 24.3.0, SVG Export Plug-In . SVG Version: 6.00 Build 0)  -->
<svg version="1.1" id="レイヤー_1" xmlns="http://www.w3.org/2000/svg" xmlns:xlink="http://www.w3.org/1999/xlink" x="0px"
	 y="0px" viewBox="0 0 84 84" style="enable-background:new 0 0 84 84;" xml:space="preserve">
<style type="text/css">
	.st0{fill:#33AC1B;}
</style>
<path class="st0" d="M44.1,84l-0.2-4c2.4-0.1,4.9-0.5,7.3-1.1l1,3.9C49.5,83.5,46.8,83.9,44.1,84z M32,82.8
	c-2.6-0.6-5.2-1.5-7.6-2.7l1.7-3.6c2.2,1,4.6,1.8,7,2.4L32,82.8z M63.3,78.2l-2-3.4c2.1-1.2,4.1-2.7,5.9-4.3l2.7,3
	C67.9,75.2,65.7,76.8,63.3,78.2L63.3,78.2z M14.2,73.5c-2-1.8-3.9-3.8-5.5-5.9l3.2-2.4c1.5,1.9,3.2,3.7,5,5.4L14.2,73.5z M77.7,64.1
	L74.3,62c1.3-2.1,2.4-4.3,3.3-6.6l3.7,1.4C80.3,59.4,79.1,61.8,77.7,64.1z M2.8,57c-1-2.5-1.7-5.1-2.2-7.8l4-0.7
	c0.4,2.4,1,4.8,1.9,7.1L2.8,57z M83.9,45l-4-0.3C80,43.8,80,42.9,80,42c0-1.5-0.1-3.1-0.3-4.6l4-0.5c0.2,1.7,0.3,3.4,0.3,5.1
	C84,43,84,44,83.9,45z M4.3,37.5l-4-0.5c0.3-2.7,0.9-5.3,1.7-7.9l3.8,1.2C5.1,32.7,4.5,35.1,4.3,37.5z M76.8,26.8
	c-1-2.2-2.2-4.4-3.6-6.4l3.3-2.3c1.6,2.2,2.9,4.6,4,7.1L76.8,26.8z M10.6,20.5l-3.3-2.3c1.5-2.2,3.3-4.3,5.2-6.2l2.8,2.8
	C13.6,16.6,12,18.5,10.6,20.5z M65.8,12.4c-1.9-1.5-4-2.9-6.1-4l1.9-3.6c2.4,1.3,4.7,2.7,6.8,4.4L65.8,12.4z M24.2,8.4l-1.9-3.5
	c2.4-1.3,4.9-2.3,7.5-3.1L31,5.6C28.6,6.3,26.4,7.3,24.2,8.4z M49.3,4.7C46.9,4.2,44.5,4,42,4h-0.2V0H42c2.7,0,5.4,0.3,8.1,0.8
	L49.3,4.7z"/>
</svg>
