<?xml version="1.0" encoding="utf-8"?>
<!-- Generator: Adobe Illustrator 24.3.0, SVG Export Plug-In . SVG Version: 6.00 Build 0)  -->
<svg version="1.1" id="レイヤー_1" xmlns="http://www.w3.org/2000/svg" xmlns:xlink="http://www.w3.org/1999/xlink" x="0px"
	 y="0px" viewBox="0 0 324 324" style="enable-background:new 0 0 324 324;" xml:space="preserve">
<style type="text/css">
	.st0{fill:#33AC1B;}
</style>
<path class="st0" d="M165.7,323.3l-0.1-4c5.3-0.1,10.6-0.5,15.7-1.2l0.5,3.9C176.5,322.7,171.1,323.1,165.7,323.3z M141.5,322.1
	c-5.4-0.7-10.7-1.6-15.9-2.8l0.9-3.9c5.1,1.2,10.3,2.1,15.6,2.7L141.5,322.1z M205.6,317.2l-1.1-3.8c5.1-1.4,10.1-3.1,15-5.1
	l1.5,3.7C215.9,314,210.8,315.7,205.6,317.2L205.6,317.2z M102.3,312.1c-5-2-10-4.2-14.7-6.7l1.8-3.5c4.7,2.4,9.5,4.6,14.4,6.5
	L102.3,312.1z M242.7,301.4l-2-3.4c4.5-2.6,9-5.6,13.2-8.6l2.3,3.2C251.9,295.7,247.4,298.6,242.7,301.4L242.7,301.4z M67,292.7
	c-4.4-3.2-8.6-6.6-12.6-10.1l2.6-3c3.9,3.5,8.1,6.8,12.3,9.9L67,292.7z M274.8,276.8L272,274c3.7-3.7,7.3-7.6,10.7-11.6l3.1,2.5
	C282.2,269,278.5,273,274.8,276.8L274.8,276.8z M37.5,265.1c-3.4-4.1-6.7-8.5-9.7-12.9l3.3-2.2c2.9,4.3,6.1,8.6,9.5,12.6L37.5,265.1
	z M299.7,245.1l-3.4-2c2.7-4.5,5.2-9.2,7.4-13.9l3.6,1.7C305,235.7,302.4,240.4,299.7,245.1L299.7,245.1z M15.8,231.1
	c-2.3-4.9-4.4-9.9-6.2-15l3.8-1.3c1.7,5,3.8,9.8,6,14.6L15.8,231.1z M315.9,208.1l-3.8-1.1c1.5-5,2.7-10.2,3.7-15.3l3.9,0.7
	C318.7,197.7,317.5,202.9,315.9,208.1L315.9,208.1z M3.3,192.7c-1-5.3-1.8-10.6-2.2-16l4-0.4c0.4,5.3,1.2,10.5,2.2,15.7L3.3,192.7z
	 M322.4,168.3l-4-0.1c0.1-1.9,0.1-3.9,0.1-5.8c0-3.3-0.1-6.6-0.3-9.9l4-0.3c0.2,3.4,0.3,6.8,0.3,10.2
	C322.5,164.3,322.5,166.3,322.4,168.3z M4.7,152.7l-4-0.2c0.3-5.4,0.9-10.8,1.8-16.1l3.9,0.6C5.6,142.1,5,147.4,4.7,152.7z
	 M315,128.9c-1.1-5.1-2.5-10.2-4.1-15.2l3.8-1.2c1.7,5.1,3.1,10.3,4.2,15.6L315,128.9z M12,114l-3.8-1.2c1.7-5.1,3.6-10.2,5.8-15.1
	l3.6,1.6C15.5,104.1,13.6,109,12,114z M302,91.8c-2.4-4.7-5-9.3-7.8-13.7l3.4-2.1c2.9,4.5,5.6,9.3,8,14.1L302,91.8z M28.7,78.3
	l-3.4-2.1c2.9-4.5,6-9,9.3-13.2l3.1,2.5C34.5,69.6,31.5,73.9,28.7,78.3z M279.9,59.1c-3.4-4-7.1-7.8-11-11.4l2.7-2.9
	c3.9,3.7,7.7,7.6,11.2,11.6L279.9,59.1z M53.7,48L51,45.1c3.9-3.7,8-7.2,12.3-10.5l2.4,3.2C61.6,40.9,57.6,44.4,53.7,48z
	 M250.6,32.9c-4.3-3-8.8-5.8-13.4-8.3l1.9-3.5c4.7,2.6,9.3,5.5,13.8,8.5L250.6,32.9z M85.5,24.7l-1.9-3.5c4.7-2.6,9.6-5,14.5-7.1
	l1.6,3.6C94.8,19.9,90.1,22.2,85.5,24.7z M215.6,14.7c-4.9-1.8-10-3.4-15.1-4.7l1-3.8c5.2,1.3,10.4,2.9,15.5,4.8L215.6,14.7z
	 M122.1,10.1l-1-3.9c5.2-1.3,10.5-2.4,15.9-3.2l0.6,3.9C132.3,7.8,127.2,8.8,122.1,10.1L122.1,10.1z M177.2,6
	c-5.2-0.5-10.5-0.8-15.8-0.8h-0.3v-4h0.4c5.4,0,10.8,0.3,16.2,0.8L177.2,6z"/>
</svg>
