<?xml version="1.0" encoding="utf-8"?>
<!-- Generator: Adobe Illustrator 25.0.0, SVG Export Plug-In . SVG Version: 6.00 Build 0)  -->
<svg version="1.1" id="レイヤー_1" xmlns="http://www.w3.org/2000/svg" xmlns:xlink="http://www.w3.org/1999/xlink" x="0px"
	 y="0px" viewBox="0 0 150.3 27.8" style="enable-background:new 0 0 150.3 27.8;" xml:space="preserve">
<style type="text/css">
	.st0{fill:#E84C4C;}
	.st1{fill:#33AC1B;stroke:#33AC1B;stroke-miterlimit:10;}
	.st2{fill:#33AC1B;}
</style>
<g id="レイヤー_1_1_">
	<g>
		<g>
			<path class="st0" d="M21.3,25.5l0.3-1.3"/>
		</g>
	</g>
</g>
<g id="レイヤー_2_1_">
</g>
<g>
	<path class="st1" d="M42.3,26.7c-3.6,0-2.3-7.3-5.1-9.9c-0.1,0.2-0.2,0.4-0.3,0.6c-2.4,4.3-5.9,9.2-14.5,9.2
		c-4.8,0-6.7-2.1-6.2-4.7c0.7-3.9,5.9-5.8,9.2-5.8c0.1,0,0.2,0,0.3,0C27.3,7.6,35.7,1.5,42.8,1.5c4.7,0,5.9,3,5.4,6.1
		c-0.6,3.2-3.6,6.9-8.7,9c1.7,1.9,1.9,8.6,3.9,8.6c0.7,0,1.7-1.1,2.5-1.9l0.6,0.5C44.6,25.7,43.5,26.7,42.3,26.7z M41.1,2.7
		c-5.3,0-13.1,5.4-14.6,13.5c1.9,0.3,3.9,1.3,5.4,2.9l-0.6,0.6c-1.5-1.5-2.8-2.2-5-2.4c0,1,0.2,2.3,0.6,3.4l-0.8,0.4
		c-0.4-1.3-0.7-2.7-0.6-3.9c-0.1,0-0.2,0-0.2,0c-2.9,0-7.7,1.4-8.3,4.7c-0.4,2.2,1.4,3.9,5.5,3.9c6.6,0,10.1-3.7,12.3-8.1
		c1.9-3.7,2.4-7.8,6.1-11.2c1.4-1.4,2.7-2.3,3.7-3C43.8,3,42.6,2.7,41.1,2.7z M45.2,4C44,5,43.3,5.5,42.1,6.8
		c-2.5,2.9-3.6,6.8-4.6,9.3c4.6-0.5,8.2-4.9,8.8-8.4C46.6,6.4,46.3,5,45.2,4z"/>
	<path class="st2" d="M51.2,23.3c0.1,1.2,1.1,2.5,2.6,2.5c1.5,0,3.5-1.7,4.7-3.4l0.8,0.6c-1.6,2.3-3.9,4.3-6.7,4.3
		c-3.4,0-4.9-2.2-4.5-4.7c0.7-4,5.4-8.8,9.6-8.8c2,0,3,1.5,2.8,3.1C60,19.8,57.1,22.3,51.2,23.3z M56.5,15c-1.6,0-4.3,1.8-5.3,7
		c5.5-0.8,6.6-3.2,6.8-4.5C58.4,16.1,57.5,15,56.5,15z"/>
	<path class="st2" d="M72,18.4c-1,0-1.4-0.8-1.3-1.5c0.1-0.8,0.5-1.5,0.9-1.8C71.4,15,71.1,15,70.8,15c-4.1,0-6.3,5-6.6,6.8
		c-0.4,2.4,1,3.6,2.6,3.6c1.2,0,3-1.2,4.4-3l0.9,0.7c-2.9,3.5-4.7,4.2-7.1,4.2c-2.4,0-4.4-1.9-3.8-5.1c0.9-5,5.4-8.4,9.9-8.4
		c2.1,0,3.5,1.1,3.2,2.9C74,17.7,72.9,18.4,72,18.4z"/>
	<path class="st2" d="M88.1,17.6c-1.4,0-1.4-1.4-1.6-1.4c-0.7,0-3.7,2.1-8.9,10.3h-2.8l4.1-10.1c0.1-0.4,0.1-0.6-0.1-0.6
		c-0.2,0-0.7,0.2-3.1,3.1l-0.9-0.5c3.2-4,4.5-4.5,5.6-4.5c1.5,0,1.9,1.1,1.1,3L80.3,20c4.2-4.4,6.3-6.3,8.3-6.3c1.5,0,2,0.9,1.8,2.1
		C90.2,16.6,89.3,17.6,88.1,17.6z"/>
	<path class="st2" d="M100.5,27.3c-1.5,0-2.1-0.7-1.1-3l1.7-4.2c-4.9,5.8-7.1,7.3-9.1,7.3c-1.7,0-2.7-0.8-1.8-3l3.3-7.8
		c0.1-0.4,0.1-0.6-0.1-0.6c-0.2,0-0.7,0.2-3.1,3.1l-0.8-0.5c3.2-4,4.5-4.5,5.6-4.5c1.5,0,1.9,1.1,1.1,3l-3.4,8.1
		c-0.1,0.4,0.1,0.7,0.5,0.7s5.3-3.2,10.2-11.4h2.8l-4.3,10.4c-0.1,0.4-0.1,0.6,0.2,0.6c0.4,0,1.3-0.8,3.1-2.8l0.4,1
		C103,26.5,101.8,27.3,100.5,27.3z"/>
	<path class="st2" d="M109.9,27.3c-1.8,0-2.1-1.5-1-4l2.8-6.8c0.1-0.4,0.1-0.6-0.1-0.6c-0.2,0-0.7,0.2-3.1,3.1l-0.8-0.5
		c3.2-4,4.5-4.5,5.6-4.5c1.5,0,1.9,1.1,1.1,3l-2.8,6.7c-0.3,0.8-0.3,1.2,0.1,1.2c0.5,0,1.4-1.2,2.6-3.2l1,0.5
		C113.7,24.7,111.9,27.3,109.9,27.3z M117,7.3c-0.9,0-1.6-0.6-1.4-1.6c0.2-0.9,1-1.6,2-1.6c0.9,0,1.5,0.7,1.4,1.6
		C118.8,6.7,117.9,7.3,117,7.3z"/>
	<path class="st2" d="M124,15.3l-3.4,8.2c-0.3,0.8-0.3,1.2,0.1,1.2c0.5,0,1.4-1.2,2.6-3.2l1,0.5c-1.7,2.7-3.5,5.3-5.5,5.3
		c-1.8,0-2.1-1.5-1-4l3.3-8h-2.5l0.2-1.1h2.8L126,3.6h2.8l-4.4,10.6h2.7l-0.2,1.1H124z"/>
</g>
</svg>
