<?xml version="1.0" encoding="utf-8"?>
<!-- Generator: Adobe Illustrator 24.3.0, SVG Export Plug-In . SVG Version: 6.00 Build 0)  -->
<svg version="1.1" xmlns="http://www.w3.org/2000/svg" xmlns:xlink="http://www.w3.org/1999/xlink" x="0px" y="0px"
	 viewBox="0 0 150.3 27.8" style="enable-background:new 0 0 150.3 27.8;" xml:space="preserve">
<style type="text/css">
	.st0{fill:#E84C4C;}
</style>
<g id="レイヤー_1">
	<g>
		<g>
			<path class="st0" d="M43.7,25.7h-0.6c-4.9,0-5.9-1.2-7.1-3.5c-0.7-1.4-1.5-3.6-2.2-5.2c-0.5-1.2-0.8-1.7-1.9-1.7h-1l-1,5.5
				c-0.5,2.8-0.1,3.1,2.7,3.4l-0.3,1.3H21.3l0.3-1.3c2.6-0.3,3.2-0.6,3.7-3.3L28,6.5c0.6-2.8,0.2-3-2.6-3.2L25.7,2h9.8
				c5.3,0,7.7,2.3,7.7,5.8c0,3.5-2.7,5.6-5.7,6.6c0.7,1.8,1.4,3.6,2.1,4.9c2.1,4.4,3,4.9,4.3,5.3L43.7,25.7z M32.2,13.8
				c3.9,0,6.1-2,6.1-5.9c0-2.3-1.2-4.4-3.5-4.4c-1.1,0-1.7,0.1-2,1.9l-1.6,8.4H32.2z"/>
			<path class="st0" d="M49.9,25.9c-2.2,0-4.5-1.2-4.5-5.5c0-3.4,1.4-7,4.1-9.1C51,10.1,53.3,9,55.3,9c2.6,0,3.8,1.5,3.8,3.2
				c0,3.8-5.5,5.2-9,5.9c0,0.3-0.1,1.1-0.1,1.4c0,1.9,0.6,3.5,2.5,3.5c1.8,0,3.6-1,5.3-2.8l0.6,1.2C55.7,24.5,52.6,25.9,49.9,25.9z
				 M50.2,16.7c3.7-0.9,4.9-2.4,4.9-4.3c0-1.2-0.6-1.7-1.4-1.7C52.7,10.7,50.9,11.8,50.2,16.7z"/>
			<path class="st0" d="M73.2,21.7c-2.4,2.8-5.3,4.2-7.7,4.2c-2.9,0-4.6-2.1-4.6-5.5c0-3.1,1.3-6.4,3.9-8.7C66.4,10.3,69.1,9,71,9
				c1.8,0,3.1,0.6,3.1,1.8c0,0.9-0.8,2-1.5,2.4c-0.4,0.2-0.8,0.1-1.1-0.2c-1.1-1.3-1.9-2.1-2.8-2.1c-1.8,0-3.1,4.1-3.1,8.4
				c0,2.6,0.9,3.7,2.4,3.7c1.6,0,3.1-0.9,4.6-2.4L73.2,21.7z"/>
			<path class="st0" d="M75.3,12.7c2-2.2,4.1-3.7,5.8-3.7c1.3,0,1.8,1.5,0.9,5.2L81.8,15c1.8-3.2,4-6,5.8-6c1.2,0,2,1,2,1.9
				c0,1.2-1,2.6-1.8,3.1c-0.4,0.3-0.7,0.3-0.9,0c-0.6-0.6-1.1-1.1-1.5-1.1c-1,0-2.9,3.3-3.3,4.1c-0.9,1.8-1.5,5.2-2.1,8
				c-1.4,0.1-3,0.5-4.1,0.8l-0.3-0.3c0.9-3.6,1.9-8.1,2.4-10.7c0.5-2.2,0.4-2.5,0.1-2.5s-1.3,0.6-2.2,1.5L75.3,12.7z"/>
			<path class="st0" d="M107.5,21.9c-2.2,2.8-4.6,4-6.2,4c-1.3,0-1.7-1.2-1.2-3.9c0.1-0.7,0.3-1.2,0.4-1.8c-1.3,1.7-2.3,2.8-3.9,4.2
				c-0.7,0.6-2.1,1.6-3.6,1.6c-1.4,0-2.9-0.9-1.9-5.2c0.5-2.2,1.1-4.4,1.7-7.1c0.2-0.9,0.2-1.3-0.1-1.3c-0.4,0-1.5,0.8-2.2,1.5
				l-0.5-1.2c2.2-2.3,4.9-3.7,6.3-3.7c1.3,0,1.7,1,0.9,4.4c-0.5,2.1-1.1,4.3-1.7,6.9c-0.4,1.6-0.1,2.2,0.4,2.2c1,0,2.5-1.5,3.8-3.3
				c0.8-1.1,1.4-2.3,2-4.5c0.3-1.3,0.6-2.9,1-4.8c1.2-0.3,2.8-0.7,4-1h0.5c-0.9,3.6-2.2,8.8-2.7,12c-0.1,0.9-0.1,1.3,0.1,1.3
				s1-0.3,2.2-1.5L107.5,21.9z"/>
			<path class="st0" d="M118.1,21.9c-2.3,2.7-4.8,4-6.3,4c-1.2,0-1.8-1.1-1.3-3.6c0.7-2.9,1.5-6,2.1-8.4c0.3-1,0.2-1.4-0.1-1.4
				c-0.4,0-1.2,0.5-2,1.2l-0.5-1.2c2.4-2.3,5-3.5,6.3-3.5c1.2,0,1.5,1.1,0.7,4.5c-0.5,2.2-1.3,5.3-1.9,7.6c-0.3,0.9-0.3,1.4,0,1.4
				s1.2-0.5,2.3-1.7L118.1,21.9z M118.7,3.9c0,1.4-1.1,2.8-2.7,2.8c-1.3,0-2.2-0.8-2.2-2.2c0-1.2,1-2.8,2.8-2.8
				C118,1.7,118.7,2.7,118.7,3.9z"/>
			<path class="st0" d="M131,11c-0.5,0.1-2.4,0.2-3.4,0.2c-1.7,8.1-1.6,7.7-2,9.8c-0.3,1.3-0.1,1.6,0.3,1.6c0.7,0,1.9-0.8,3-2.1
				l0.6,1.1c-1.4,1.9-4.2,4.2-6.5,4.2c-1.7,0-2.4-1.3-1.5-5.1l2-9.5h-2.8l-0.1-0.3l1.1-1.5h2.2l0.8-3.7c1.2-0.6,3.3-1.7,4.3-2.5
				l0.5,0.3c-0.4,1.3-1.1,4-1.5,5.9h3.8L131,11z"/>
		</g>
	</g>
</g>
<g id="レイヤー_2">
</g>
</svg>
