<svg id="レイヤー_1" data-name="レイヤー 1" xmlns="http://www.w3.org/2000/svg" viewBox="0 0 84 84">
  <defs>
    <style>
      .cls-1 {
        fill: #e84c4c;
      }
    </style>
  </defs>
  <title>cicle_micro</title>
  <path class="cls-1" d="M44.11,84l-.19-4a38.55,38.55,0,0,0,7.25-1.06l1,3.88A42.41,42.41,0,0,1,44.11,84ZM32,82.81a42,42,0,0,1-7.65-2.67l1.68-3.63A37.47,37.47,0,0,0,33,78.92Zm31.32-4.64-2-3.44a37.44,37.44,0,0,0,5.92-4.33l2.66,3A41.83,41.83,0,0,1,63.36,78.17ZM14.23,73.51a42.51,42.51,0,0,1-5.54-5.92l3.17-2.44a38.52,38.52,0,0,0,5,5.36Zm63.48-9.4L74.31,62a37.86,37.86,0,0,0,3.25-6.57l3.74,1.42A41.53,41.53,0,0,1,77.71,64.11ZM2.76,57A42.11,42.11,0,0,1,.61,49.19l4-.68A37.57,37.57,0,0,0,6.5,55.58ZM83.89,45l-4-.29c.07-.9.1-1.81.1-2.71a37.57,37.57,0,0,0-.28-4.62l4-.48A41.32,41.32,0,0,1,84,42C84,43,84,44,83.89,45ZM4.26,37.54l-4-.47A41.87,41.87,0,0,1,2,29.15l3.81,1.22A37.85,37.85,0,0,0,4.26,37.54ZM76.84,26.8a38.17,38.17,0,0,0-3.57-6.4l3.28-2.28a41.86,41.86,0,0,1,4,7.07ZM10.65,20.52l-3.3-2.26a43.44,43.44,0,0,1,5.2-6.21l2.81,2.85A38.23,38.23,0,0,0,10.65,20.52Zm55.13-8.16a38.07,38.07,0,0,0-6.13-4L61.51,4.8a42.08,42.08,0,0,1,6.78,4.44ZM24.21,8.41,22.34,4.88a41.75,41.75,0,0,1,7.49-3.09L31,5.62A37.06,37.06,0,0,0,24.21,8.41ZM49.3,4.7A38.67,38.67,0,0,0,42,4h-.16V0H42a42.63,42.63,0,0,1,8.08.77Z"/>
</svg>
