<?xml version="1.0" encoding="utf-8"?>
<!-- Generator: Adobe Illustrator 24.3.0, SVG Export Plug-In . SVG Version: 6.00 Build 0)  -->
<svg version="1.1" id="レイヤー_1" xmlns="http://www.w3.org/2000/svg" xmlns:xlink="http://www.w3.org/1999/xlink" x="0px"
	 y="0px" viewBox="0 0 1084 1084" style="enable-background:new 0 0 1084 1084;" xml:space="preserve">
<style type="text/css">
	.st0{fill:#33AC1B;}
</style>
<path class="st0" d="M545.8,1079.7v-4c5.2,0,10.5-0.2,15.8-0.3l0.2,4C556.5,1079.6,551.1,1079.7,545.8,1079.7z M522,1079.4
	c-5.3-0.2-10.6-0.4-15.9-0.8l0.3-4c5.2,0.3,10.5,0.6,15.8,0.8L522,1079.4z M585.6,1078l-0.3-4c5.2-0.4,10.5-0.9,15.7-1.5l0.4,4
	C596.1,1077,590.8,1077.6,585.6,1078L585.6,1078z M482.4,1076.5c-5.3-0.6-10.6-1.2-15.8-2l0.5-3.9c5.2,0.7,10.5,1.4,15.7,1.9
	L482.4,1076.5z M625,1073.3l-0.6-3.9c5.2-0.8,10.4-1.7,15.6-2.7l0.7,3.9C635.5,1071.6,630.3,1072.5,625,1073.3z M443,1070.8
	c-5.2-1-10.4-2-15.6-3.1l0.8-3.9c5.1,1.1,10.3,2.1,15.5,3.1L443,1070.8z M664.1,1065.8l-0.9-3.9c5.1-1.2,10.3-2.5,15.3-3.8l1,3.8
	C674.4,1063.2,669.2,1064.5,664.1,1065.8L664.1,1065.8z M404.2,1062.1c-5.1-1.3-10.3-2.8-15.3-4.3l1.1-3.8c5,1.5,10.1,2.9,15.2,4.2
	L404.2,1062.1z M702.5,1055.3l-1.2-3.8c5-1.6,10-3.2,15-4.9l1.3,3.8C712.6,1052,707.5,1053.7,702.5,1055.3L702.5,1055.3z
	 M366.1,1050.6c-5-1.7-10-3.6-15-5.4l1.4-3.7c4.9,1.9,9.9,3.7,14.9,5.4L366.1,1050.6z M739.9,1042l-1.5-3.7c4.8-1.9,9.7-4,14.5-6
	l1.6,3.7C749.7,1038,744.8,1040.1,739.9,1042z M328.9,1036.2c-4.9-2.1-9.8-4.3-14.6-6.5l1.7-3.6c4.8,2.2,9.6,4.4,14.5,6.5
	L328.9,1036.2z M776.2,1026l-1.7-3.6c4.7-2.3,9.4-4.7,14.1-7.1l1.8,3.5C785.7,1021.3,780.9,1023.7,776.2,1026z M292.9,1019
	c-4.7-2.5-9.4-5-14-7.6l1.9-3.5c4.6,2.6,9.3,5.1,13.9,7.5L292.9,1019z M811.3,1007.3l-2-3.4c4.5-2.6,9.1-5.4,13.5-8.1l2.1,3.4
	C820.4,1002,815.8,1004.7,811.3,1007.3L811.3,1007.3z M258.3,999.3c-4.5-2.8-9-5.7-13.4-8.6l2.2-3.3c4.4,2.9,8.9,5.8,13.3,8.5
	L258.3,999.3z M844.8,986.2l-2.2-3.3c4.3-3,8.7-6,12.9-9.1l2.3,3.2C853.6,980.1,849.2,983.2,844.8,986.2L844.8,986.2z M225.3,977.2
	c-4.3-3.1-8.6-6.3-12.7-9.5l2.4-3.2c4.1,3.2,8.4,6.4,12.6,9.5L225.3,977.2z M876.8,962.6l-2.5-3.1c4.1-3.3,8.2-6.6,12.2-10l2.6,3
	C885,955.9,880.9,959.3,876.8,962.6L876.8,962.6z M194,952.5c-4-3.4-8.1-6.9-12-10.5l2.6-3c3.9,3.5,7.9,7,11.9,10.4L194,952.5z
	 M906.9,936.6l-2.7-2.9c3.8-3.6,7.7-7.2,11.4-10.9l2.8,2.8C914.7,929.4,910.8,933.1,906.9,936.6L906.9,936.6z M164.6,925.7
	c-3.8-3.7-7.5-7.5-11.2-11.3l2.9-2.8c3.6,3.8,7.4,7.6,11.1,11.2L164.6,925.7z M935.1,908.6l-2.9-2.7c3.6-3.8,7.1-7.8,10.6-11.7
	l3,2.6C942.3,900.8,938.7,904.7,935.1,908.6z M137.3,896.9c-3.5-4-7-8-10.3-12.1l3.1-2.5c3.4,4,6.8,8.1,10.3,12L137.3,896.9z
	 M961.2,878.5l-3.1-2.5c3.3-4.1,6.5-8.3,9.7-12.5l3.2,2.4C967.8,870.2,964.5,874.4,961.2,878.5z M112.2,866.1
	c-3.2-4.2-6.3-8.5-9.4-12.8l3.2-2.3c3,4.3,6.2,8.5,9.3,12.7L112.2,866.1z M985,846.6l-3.3-2.3c3-4.3,5.9-8.7,8.8-13.2l3.3,2.2
	C990.9,837.8,987.9,842.3,985,846.6L985,846.6z M89.4,833.6c-2.9-4.4-5.7-9-8.4-13.5l3.4-2.1c2.7,4.5,5.5,9,8.4,13.4L89.4,833.6z
	 M1006.4,813.1l-3.4-2c2.7-4.5,5.3-9.2,7.8-13.8l3.5,1.9C1011.6,803.8,1009,808.5,1006.4,813.1L1006.4,813.1z M69,799.5
	c-2.5-4.6-5-9.3-7.4-14l3.5-1.8c2.4,4.6,4.9,9.3,7.4,13.9L69,799.5z M1025.1,777.9l-3.6-1.7c2.3-4.7,4.6-9.5,6.8-14.3l3.6,1.6
	C1029.7,768.3,1027.4,773.2,1025.1,777.9L1025.1,777.9z M51.3,764c-2.2-4.8-4.3-9.7-6.3-14.5l3.7-1.5c2,4.8,4.1,9.7,6.3,14.4
	L51.3,764z M1041.3,741.5l-3.7-1.5c2-4.9,3.9-9.9,5.7-14.8l3.7,1.4C1045.2,731.5,1043.3,736.6,1041.3,741.5L1041.3,741.5z
	 M36.2,727.3c-1.8-4.9-3.6-10-5.3-15l3.8-1.3c1.7,5,3.4,10,5.2,14.9L36.2,727.3z M1054.7,703.9l-3.8-1.2c1.6-5,3.1-10.1,4.5-15.1
	l3.8,1.1C1057.9,693.8,1056.3,698.9,1054.7,703.9z M23.9,689.5c-1.5-5.1-2.8-10.3-4.1-15.4l3.9-1c1.3,5.1,2.7,10.2,4.1,15.3
	L23.9,689.5z M1065.3,665.6l-3.9-0.9c1.2-5.1,2.3-10.3,3.4-15.4l3.9,0.8C1067.7,655.3,1066.5,660.5,1065.3,665.6z M14.4,650.8
	c-1.1-5.2-2.1-10.4-3-15.6l3.9-0.7c0.9,5.2,1.9,10.4,3,15.5L14.4,650.8z M1073,626.6l-3.9-0.6c0.8-5.2,1.6-10.4,2.3-15.6l3.9,0.5
	C1074.6,616.1,1073.8,621.4,1073,626.6z M7.8,611.6c-0.7-5.2-1.3-10.5-1.8-15.8l4-0.4c0.5,5.2,1.1,10.5,1.8,15.7L7.8,611.6z
	 M1077.8,587.1l-4-0.3c0.4-5.2,0.8-10.5,1.1-15.8l4,0.2C1078.6,576.5,1078.2,581.8,1077.8,587.1z M4.2,572
	c-0.3-5.3-0.5-10.6-0.7-15.9l4-0.1c0.1,5.3,0.4,10.6,0.6,15.8L4.2,572z M1079.6,547.4h-4c0-1.9,0-3.8,0-5.8c0-3.3,0-6.7-0.1-10
	l4-0.1c0.1,3.4,0.1,6.8,0.1,10.1C1079.7,543.5,1079.6,545.5,1079.6,547.4z M7.4,532.3l-4-0.1c0.1-5.3,0.3-10.6,0.5-15.9l4,0.2
	C7.6,521.8,7.5,527.1,7.4,532.3z M1074.6,507.9c-0.3-5.2-0.7-10.5-1.2-15.8l4-0.4c0.5,5.3,0.9,10.6,1.2,15.9L1074.6,507.9z
	 M9.5,492.9l-4-0.4c0.5-5.3,1-10.6,1.7-15.8l3.9,0.5C10.5,482.4,10,487.7,9.5,492.9z M1070.7,468.6c-0.7-5.2-1.5-10.4-2.4-15.6
	l3.9-0.6c0.9,5.2,1.7,10.5,2.4,15.7L1070.7,468.6z M14.5,453.8l-3.9-0.6c0.9-5.2,1.8-10.5,2.8-15.6l3.9,0.8
	C16.3,443.4,15.3,448.6,14.5,453.8z M1063.9,429.8c-1.1-5.1-2.3-10.3-3.5-15.4l3.9-1c1.3,5.1,2.4,10.4,3.6,15.5L1063.9,429.8z
	 M22.4,415.1l-3.9-0.9c1.3-5.1,2.6-10.3,4-15.4l3.8,1.1C24.9,404.9,23.6,410,22.4,415.1z M1054.3,391.5c-1.5-5-3-10.1-4.7-15.1
	l3.8-1.2c1.6,5,3.2,10.1,4.7,15.2L1054.3,391.5z M33.1,377.1l-3.8-1.2c1.6-5,3.4-10.1,5.1-15.1l3.8,1.3
	C36.4,367.1,34.7,372.1,33.1,377.1z M1041.8,354c-1.8-4.9-3.8-9.9-5.8-14.7l3.7-1.5c2,4.9,4,9.9,5.8,14.8L1041.8,354z M46.7,339.9
	l-3.7-1.5c2-4.9,4.1-9.9,6.3-14.7l3.6,1.6C50.7,330.2,48.7,335.1,46.7,339.9z M1026.7,317.6c-2.2-4.8-4.5-9.5-6.8-14.2l3.5-1.8
	c2.3,4.7,4.7,9.5,6.9,14.3L1026.7,317.6z M63,303.9l-3.5-1.8c2.4-4.8,4.8-9.5,7.3-14.2l3.5,1.9C67.7,294.5,65.3,299.2,63,303.9z
	 M1008.8,282.5c-2.5-4.6-5.2-9.2-7.8-13.7l3.4-2c2.7,4.5,5.3,9.1,7.9,13.8L1008.8,282.5z M81.9,269.2l-3.4-2
	c2.7-4.6,5.5-9.1,8.3-13.6l3.3,2.1C87.3,260.1,84.6,264.7,81.9,269.2z M988.4,248.8c-2.9-4.4-5.9-8.8-8.8-13.1l3.3-2.3
	c3,4.3,6,8.7,8.9,13.1L988.4,248.8z M103.3,236l-3.3-2.3c3-4.3,6.2-8.7,9.3-12.9l3.2,2.4C109.4,227.4,106.3,231.7,103.3,236z
	 M965.5,216.7c-3.2-4.2-6.5-8.3-9.8-12.4l3.1-2.5c3.3,4.1,6.6,8.3,9.9,12.5L965.5,216.7z M127.1,204.4l-3.1-2.5
	c3.3-4.1,6.8-8.2,10.2-12.2l3,2.6C133.8,196.3,130.4,200.4,127.1,204.4z M940.4,186.3c-3.5-3.9-7.1-7.8-10.7-11.6l2.9-2.7
	c3.6,3.8,7.2,7.8,10.8,11.7L940.4,186.3z M153.1,174.8l-2.9-2.8c3.6-3.8,7.4-7.7,11.1-11.4l2.8,2.8
	C160.4,167.2,156.7,171,153.1,174.8L153.1,174.8z M913.1,157.8c-3.8-3.6-7.6-7.3-11.5-10.8l2.7-2.9c3.9,3.6,7.8,7.2,11.6,10.9
	L913.1,157.8z M181.3,147.1l-2.7-2.9c3.9-3.6,7.9-7.1,11.9-10.6l2.6,3C189.1,140,185.1,143.6,181.3,147.1z M883.7,131.4
	c-4-3.4-8.2-6.7-12.3-9.9l2.5-3.1c4.1,3.3,8.3,6.6,12.4,10L883.7,131.4z M211.4,121.6l-2.5-3.1c4.1-3.3,8.4-6.5,12.6-9.7l2.4,3.2
	C219.7,115.1,215.5,118.3,211.4,121.6L211.4,121.6z M852.5,107.2c-4.3-3.1-8.6-6.1-13-9l2.2-3.3c4.4,3,8.8,6,13.1,9.1L852.5,107.2z
	 M243.2,98.3L241,95c4.4-2.9,8.8-5.9,13.3-8.7l2.1,3.3C252,92.5,247.6,95.4,243.2,98.3z M819.5,85.3c-4.5-2.7-9.1-5.4-13.6-8l2-3.4
	c4.6,2.6,9.2,5.3,13.7,8.1L819.5,85.3z M276.7,77.5l-2-3.4c4.6-2.6,9.3-5.2,13.9-7.7l1.9,3.5C285.9,72.4,281.3,74.9,276.7,77.5z
	 M785.1,66c-4.7-2.4-9.5-4.8-14.2-7l1.7-3.6c4.8,2.3,9.6,4.6,14.3,7.1L785.1,66z M311.6,59.2l-1.7-3.6c4.8-2.3,9.6-4.5,14.4-6.6
	l1.6,3.6C321.1,54.8,316.3,57,311.6,59.2z M749.2,49.2c-4.8-2-9.8-4-14.7-6l1.4-3.7c4.9,1.9,9.9,3.9,14.8,6L749.2,49.2z M347.7,43.6
	l-1.5-3.7c4.9-1.9,9.9-3.8,14.9-5.5l1.3,3.7C357.6,39.9,352.6,41.7,347.7,43.6z M712.2,35.3c-5-1.7-10.1-3.3-15.1-4.8l1.2-3.8
	c5.1,1.5,10.2,3.2,15.2,4.9L712.2,35.3z M385,30.7l-1.2-3.8c5.1-1.5,10.2-3,15.3-4.4l1,3.8C395.1,27.6,390,29.1,385,30.7z M674.3,24
	c-5.1-1.3-10.2-2.5-15.4-3.7l0.9-3.9c5.2,1.2,10.4,2.4,15.5,3.7L674.3,24z M423.2,20.5l-0.9-3.9c5.1-1.2,10.4-2.3,15.6-3.3l0.8,3.9
	C433.5,18.3,428.3,19.4,423.2,20.5L423.2,20.5z M635.8,15.6c-5.2-0.9-10.4-1.8-15.6-2.5l0.6-3.9c5.2,0.8,10.5,1.6,15.7,2.6
	L635.8,15.6z M462,13.3l-0.6-3.9c5.2-0.8,10.5-1.5,15.8-2.1l0.5,4C472.4,11.8,467.1,12.5,462,13.3z M596.7,10.2
	c-5.2-0.5-10.5-1-15.7-1.4l0.3-4c5.3,0.4,10.6,0.8,15.8,1.4L596.7,10.2z M501.2,8.9l-0.3-4c5.3-0.4,10.6-0.7,15.9-1l0.2,4
	C511.7,8.2,506.4,8.5,501.2,8.9z M557.3,7.6c-5.2-0.2-10.5-0.2-15.8-0.2h-0.8v-4h0.8c5.3,0,10.6,0.1,15.9,0.2L557.3,7.6z"/>
</svg>
