<svg id="レイヤー_1" data-name="レイヤー 1" xmlns="http://www.w3.org/2000/svg" viewBox="0 0 61 61">
  <defs>
    <style>
      .cls-1 {
        fill: #fff;
        fill-rule: evenodd;
      }
    </style>
  </defs>
  <title>icon_sns_instagram_white</title>
  <path class="cls-1" d="M30.5,22.19a8.31,8.31,0,1,0,8.31,8.31A8.31,8.31,0,0,0,30.5,22.19Zm0,12.46a4.15,4.15,0,1,1,4.15-4.15A4.15,4.15,0,0,1,30.5,34.65Zm8.31-20.76H22.19a8.31,8.31,0,0,0-8.3,8.3V38.81a8.31,8.31,0,0,0,8.3,8.3H38.81a8.31,8.31,0,0,0,8.3-8.3V22.19A8.31,8.31,0,0,0,38.81,13.89ZM43,38a5,5,0,0,1-5,5H23a5,5,0,0,1-5-5V23a5,5,0,0,1,5-5H38a5,5,0,0,1,5,5ZM38.81,20.12a2.08,2.08,0,1,0,2.07,2.07A2.08,2.08,0,0,0,38.81,20.12Z"/>
</svg>
