<svg id="レイヤー_1" data-name="レイヤー 1" xmlns="http://www.w3.org/2000/svg" viewBox="0 0 51 51">
  <defs>
    <style>
      .cls-1 {
        fill: #fff;
        fill-rule: evenodd;
      }
    </style>
  </defs>
  <title>icon_calendar_white</title>
  <path class="cls-1" d="M30.64,22h-4v4h4Zm-2-12h-6v4h6Zm-2,28h4V34h-4Zm-2-10h-4v4h4Zm12-6h-4v4h4Zm-6,6h-4v4h4Zm2-12a2,2,0,0,0,2-2V8a2,2,0,0,0-4,0v6A2,2,0,0,0,32.64,16Zm4,12h-4v4h4Zm-18-6h-4v4h4Zm-4,16h4V34h-4Zm22-28v4a4,4,0,0,1,4,4V40a4,4,0,0,1-4,4h-22a4,4,0,0,1-4-4V18a4,4,0,0,1,4-4V10a8,8,0,0,0-8,8V40a8,8,0,0,0,8,8h22a8,8,0,0,0,8-8V18A8,8,0,0,0,36.64,10Zm-16,28h4V34h-4Zm4-16h-4v4h4Zm-6,6h-4v4h4Zm0-12a2,2,0,0,0,2-2V8a2,2,0,0,0-4,0v6A2,2,0,0,0,18.64,16Zm14,22h4V34h-4Z"/>
</svg>
