<svg id="レイヤー_1" data-name="レイヤー 1" xmlns="http://www.w3.org/2000/svg" viewBox="0 0 51 51">
  <defs>
    <style>
      .cls-1, .cls-2 {
        fill: #fff;
      }

      .cls-1 {
        fill-rule: evenodd;
      }
    </style>
  </defs>
  <title>icon_access_white</title>
  <path class="cls-1" d="M25.5,15a3,3,0,1,1-3,3A3,3,0,0,1,25.5,15Z"/>
  <path class="cls-2" d="M25.5,48.59a6.06,6.06,0,0,1-6.05-6.05c0-6.76-1.3-9.62-3.72-12.54-.16-.17-5.48-6.07-5.48-12a15.25,15.25,0,0,1,30.5,0c0,6-5.32,11.88-5.55,12.13-2.35,2.84-3.65,5.7-3.65,12.46A6.06,6.06,0,0,1,25.5,48.59Zm0-41.89A11.26,11.26,0,0,0,14.25,18c0,3.67,3.25,8.05,4.5,9.43,3.45,4.16,4.7,8.25,4.7,15.16a2.05,2.05,0,0,0,4.1,0c0-6.91,1.25-11,4.64-15.09C33.5,26,36.75,21.62,36.75,18A11.26,11.26,0,0,0,25.5,6.7Z"/>
</svg>
