<?xml version="1.0" encoding="utf-8"?>
<!-- Generator: Adobe Illustrator 25.0.0, SVG Export Plug-In . SVG Version: 6.00 Build 0)  -->
<svg version="1.1" id="レイヤー_1" xmlns="http://www.w3.org/2000/svg" xmlns:xlink="http://www.w3.org/1999/xlink" x="0px"
	 y="0px" viewBox="0 0 182.7 43.1" style="enable-background:new 0 0 182.7 43.1;" xml:space="preserve">
<style type="text/css">
	.st0{fill:#595757;}
	.st1{fill:#8DC33E;}
	.st2{fill:#888888;}
	.st3{fill:#74BC4A;}
</style>
<g>
	<g>
		<g>
			<g>
				<path class="st0" d="M55.6,8.9h4.3c0.8,0,1.5,0,1.9,0.1c0.4,0.1,0.8,0.2,1.1,0.4c0.3,0.2,0.6,0.5,0.8,0.9
					c0.2,0.4,0.3,0.8,0.3,1.3c0,0.5-0.1,1-0.4,1.4c-0.3,0.4-0.6,0.7-1.1,0.9c0.7,0.2,1.2,0.5,1.5,1c0.3,0.5,0.5,1,0.5,1.6
					c0,0.5-0.1,1-0.3,1.4c-0.2,0.5-0.5,0.8-0.9,1.1c-0.4,0.3-0.9,0.4-1.5,0.5c-0.4,0-1.2,0.1-2.6,0.1h-3.6V8.9z M57.8,10.6v2.5h1.4
					c0.8,0,1.4,0,1.6,0c0.4,0,0.7-0.2,0.9-0.4c0.2-0.2,0.3-0.5,0.3-0.8c0-0.3-0.1-0.6-0.3-0.8c-0.2-0.2-0.5-0.3-0.8-0.4
					c-0.2,0-0.8,0-1.8,0H57.8z M57.8,14.9v2.9h2c0.8,0,1.3,0,1.5-0.1c0.3-0.1,0.6-0.2,0.8-0.4c0.2-0.2,0.3-0.5,0.3-0.9
					c0-0.3-0.1-0.6-0.2-0.8c-0.2-0.2-0.4-0.4-0.7-0.5c-0.3-0.1-0.9-0.2-1.9-0.2H57.8z"/>
				<path class="st0" d="M66.2,14.3c0-1.1,0.2-2,0.5-2.8c0.2-0.5,0.6-1,1-1.5c0.4-0.4,0.9-0.8,1.4-1c0.7-0.3,1.4-0.4,2.3-0.4
					c1.6,0,2.8,0.5,3.8,1.5c0.9,1,1.4,2.3,1.4,4.1c0,1.7-0.5,3.1-1.4,4.1c-0.9,1-2.2,1.5-3.8,1.5c-1.6,0-2.9-0.5-3.8-1.5
					C66.7,17.3,66.2,16,66.2,14.3z M68.4,14.2c0,1.2,0.3,2.1,0.8,2.8c0.6,0.6,1.3,0.9,2.1,0.9c0.9,0,1.6-0.3,2.1-0.9
					c0.5-0.6,0.8-1.6,0.8-2.8c0-1.2-0.3-2.1-0.8-2.7c-0.5-0.6-1.3-0.9-2.1-0.9c-0.9,0-1.6,0.3-2.2,0.9C68.7,12.1,68.4,13,68.4,14.2z
					"/>
				<path class="st0" d="M78.7,19.6V8.9h2.1l4.4,7.2V8.9h2v10.7h-2.2l-4.3-7v7H78.7z"/>
				<path class="st0" d="M89.9,8.9h4c0.9,0,1.6,0.1,2,0.2c0.6,0.2,1.2,0.5,1.6,1c0.5,0.5,0.8,1.1,1,1.7c0.2,0.7,0.3,1.5,0.3,2.5
					c0,0.9-0.1,1.6-0.3,2.3c-0.3,0.8-0.6,1.4-1.1,1.9c-0.4,0.4-0.9,0.7-1.5,0.9c-0.5,0.2-1.1,0.2-1.9,0.2h-4.1V8.9z M92,10.7v7.1
					h1.6c0.6,0,1,0,1.3-0.1c0.3-0.1,0.6-0.2,0.9-0.4c0.2-0.2,0.4-0.6,0.6-1c0.1-0.5,0.2-1.1,0.2-2c0-0.8-0.1-1.5-0.2-1.9
					c-0.1-0.4-0.3-0.8-0.6-1c-0.3-0.2-0.6-0.4-1-0.5c-0.3-0.1-0.9-0.1-1.8-0.1H92z"/>
				<path class="st0" d="M100.4,16.1l2.1-0.2c0.1,0.7,0.4,1.2,0.8,1.6c0.4,0.3,0.9,0.5,1.6,0.5c0.7,0,1.2-0.1,1.6-0.4
					c0.4-0.3,0.5-0.6,0.5-1c0-0.3-0.1-0.5-0.2-0.6c-0.1-0.2-0.4-0.3-0.8-0.5c-0.3-0.1-0.8-0.2-1.7-0.5c-1.2-0.3-2-0.6-2.4-1.1
					c-0.7-0.6-1-1.3-1-2.2c0-0.5,0.2-1.1,0.5-1.5c0.3-0.5,0.8-0.8,1.3-1.1c0.6-0.2,1.3-0.4,2.1-0.4c1.3,0,2.4,0.3,3,0.9
					c0.7,0.6,1,1.4,1.1,2.4l-2.2,0.1c-0.1-0.5-0.3-0.9-0.6-1.2c-0.3-0.2-0.8-0.4-1.4-0.4c-0.6,0-1.1,0.1-1.5,0.4
					c-0.2,0.2-0.3,0.4-0.3,0.7c0,0.3,0.1,0.5,0.3,0.7c0.3,0.2,0.9,0.5,2,0.7c1.1,0.2,1.8,0.5,2.3,0.8c0.5,0.3,0.9,0.6,1.2,1.1
					c0.3,0.5,0.4,1,0.4,1.7c0,0.6-0.2,1.2-0.5,1.7c-0.3,0.5-0.8,0.9-1.4,1.2c-0.6,0.3-1.4,0.4-2.3,0.4c-1.4,0-2.4-0.3-3.1-0.9
					C101,18.2,100.6,17.3,100.4,16.1z"/>
				<path class="st0" d="M116,11.8h1.9V13c0.3-0.4,0.6-0.7,1-0.9c0.4-0.2,0.9-0.4,1.4-0.4c0.9,0,1.7,0.4,2.3,1.1
					c0.6,0.7,0.9,1.7,0.9,3c0,1.3-0.3,2.3-0.9,3c-0.6,0.7-1.4,1.1-2.3,1.1c-0.4,0-0.8-0.1-1.2-0.3c-0.3-0.2-0.7-0.5-1.1-0.9v3.9H116
					V11.8z M118,15.6c0,0.9,0.2,1.5,0.5,1.9c0.3,0.4,0.8,0.6,1.3,0.6c0.5,0,0.9-0.2,1.2-0.6c0.3-0.4,0.5-1,0.5-1.9
					c0-0.8-0.2-1.4-0.5-1.8c-0.3-0.4-0.7-0.6-1.2-0.6c-0.5,0-0.9,0.2-1.2,0.6C118.2,14.2,118,14.8,118,15.6z"/>
				<path class="st0" d="M127.6,19.6h-2.1v-7.8h1.9v1.1c0.3-0.5,0.6-0.9,0.9-1c0.3-0.2,0.6-0.3,0.9-0.3c0.5,0,0.9,0.1,1.3,0.4
					l-0.6,1.8c-0.3-0.2-0.7-0.3-1-0.3c-0.3,0-0.5,0.1-0.7,0.2c-0.2,0.2-0.4,0.4-0.5,0.9c-0.1,0.4-0.2,1.3-0.2,2.6V19.6z"/>
				<path class="st0" d="M131.2,15.6c0-0.7,0.2-1.3,0.5-2c0.3-0.6,0.8-1.1,1.4-1.5c0.6-0.3,1.3-0.5,2.1-0.5c1.2,0,2.1,0.4,2.9,1.1
					c0.8,0.8,1.1,1.7,1.1,2.9c0,1.2-0.4,2.1-1.1,2.9c-0.8,0.8-1.7,1.2-2.9,1.2c-0.7,0-1.4-0.2-2-0.5c-0.6-0.3-1.1-0.8-1.5-1.4
					C131.4,17.2,131.2,16.5,131.2,15.6z M133.3,15.7c0,0.8,0.2,1.4,0.5,1.8c0.4,0.4,0.8,0.6,1.4,0.6c0.5,0,1-0.2,1.3-0.6
					c0.4-0.4,0.5-1,0.5-1.8c0-0.8-0.2-1.3-0.5-1.8c-0.4-0.4-0.8-0.6-1.3-0.6c-0.5,0-1,0.2-1.4,0.6C133.5,14.3,133.3,14.9,133.3,15.7
					z"/>
				<path class="st0" d="M141.2,11.8h1.9V13c0.2-0.4,0.6-0.7,1-0.9c0.4-0.2,0.9-0.4,1.4-0.4c0.9,0,1.7,0.4,2.3,1.1
					c0.6,0.7,0.9,1.7,0.9,3c0,1.3-0.3,2.3-1,3c-0.6,0.7-1.4,1.1-2.3,1.1c-0.4,0-0.8-0.1-1.2-0.3c-0.4-0.2-0.7-0.5-1.1-0.9v3.9h-2.1
					V11.8z M143.2,15.6c0,0.9,0.2,1.5,0.5,1.9c0.3,0.4,0.8,0.6,1.3,0.6c0.5,0,0.9-0.2,1.2-0.6c0.3-0.4,0.5-1,0.5-1.9
					c0-0.8-0.2-1.4-0.5-1.8c-0.3-0.4-0.7-0.6-1.2-0.6c-0.5,0-0.9,0.2-1.3,0.6C143.4,14.2,143.2,14.8,143.2,15.6z"/>
				<path class="st0" d="M155.4,17.1l2,0.3c-0.3,0.8-0.7,1.3-1.2,1.7c-0.6,0.4-1.3,0.6-2.1,0.6c-1.3,0-2.3-0.4-3-1.3
					c-0.5-0.7-0.8-1.6-0.8-2.7c0-1.3,0.3-2.3,1-3c0.7-0.7,1.5-1.1,2.6-1.1c1.2,0,2.1,0.4,2.7,1.1c0.7,0.8,1,1.9,1,3.5h-5.1
					c0,0.6,0.2,1.1,0.5,1.4c0.3,0.3,0.7,0.5,1.2,0.5c0.3,0,0.6-0.1,0.8-0.3C155.1,17.8,155.3,17.5,155.4,17.1z M155.5,15
					c0-0.6-0.2-1-0.5-1.4c-0.3-0.3-0.6-0.5-1.1-0.5c-0.4,0-0.8,0.2-1.1,0.5c-0.3,0.3-0.4,0.8-0.4,1.3H155.5z"/>
				<path class="st0" d="M161.6,19.6h-2.1v-7.8h1.9v1.1c0.3-0.5,0.6-0.9,0.9-1c0.3-0.2,0.6-0.3,0.9-0.3c0.5,0,0.9,0.1,1.4,0.4
					l-0.6,1.8c-0.3-0.2-0.7-0.3-1-0.3c-0.3,0-0.5,0.1-0.7,0.2c-0.2,0.2-0.4,0.4-0.5,0.9c-0.1,0.4-0.2,1.3-0.2,2.6V19.6z"/>
				<path class="st0" d="M169.9,11.8v1.6h-1.4v3.1c0,0.6,0,1,0,1.1c0,0.1,0.1,0.2,0.2,0.3c0.1,0.1,0.2,0.1,0.3,0.1
					c0.2,0,0.5-0.1,0.8-0.2l0.2,1.6c-0.5,0.2-1,0.3-1.6,0.3c-0.4,0-0.7-0.1-1-0.2c-0.3-0.1-0.5-0.3-0.7-0.5
					c-0.1-0.2-0.2-0.5-0.3-0.8c0-0.2-0.1-0.7-0.1-1.4v-3.4h-0.9v-1.6h0.9v-1.5l2.1-1.2v2.7H169.9z"/>
				<path class="st0" d="M171.1,11.8h2.2l1.9,5.5l1.8-5.5h2.1l-2.7,7.5l-0.5,1.4c-0.2,0.5-0.4,0.8-0.5,1c-0.2,0.2-0.3,0.4-0.6,0.6
					c-0.2,0.1-0.5,0.3-0.8,0.3c-0.3,0.1-0.7,0.1-1.1,0.1c-0.4,0-0.8,0-1.2-0.1l-0.2-1.6c0.3,0.1,0.6,0.1,0.9,0.1
					c0.5,0,0.8-0.1,1.1-0.4c0.2-0.3,0.4-0.6,0.5-1.1L171.1,11.8z"/>
			</g>
		</g>
		<path class="st1" d="M179.2,26.1H55.5c-0.3,0-0.5-0.2-0.5-0.5c0-0.3,0.2-0.5,0.5-0.5h123.8c0.3,0,0.5,0.2,0.5,0.5
			C179.7,25.9,179.5,26.1,179.2,26.1z"/>
		<g>
			<g>
				<g>
					<path class="st0" d="M56.3,36.8h-0.6v-5.3h1.7c0.3,0,0.6,0,0.8,0.1c0.2,0.1,0.5,0.1,0.6,0.2c0.2,0.1,0.3,0.3,0.4,0.4
						c0.1,0.2,0.1,0.4,0.1,0.7c0,0.2,0,0.4-0.1,0.5c-0.1,0.2-0.2,0.3-0.3,0.4c-0.1,0.1-0.3,0.2-0.5,0.3c-0.2,0.1-0.4,0.1-0.6,0.1
						l1.7,2.5h-0.7l-1.6-2.5h-1V36.8z M56.3,33.9h1c0.5,0,0.9-0.1,1.1-0.2c0.3-0.2,0.4-0.4,0.4-0.7c0-0.2,0-0.3-0.1-0.4
						c-0.1-0.1-0.2-0.2-0.3-0.3c-0.1-0.1-0.3-0.1-0.5-0.2c-0.2,0-0.4-0.1-0.6-0.1h-1.1V33.9z"/>
					<path class="st0" d="M59.8,36.9h-0.9l0,0l-1.6-2.5h-0.9v2.5h-0.7v-5.5h1.8c0.3,0,0.6,0,0.8,0.1c0.3,0.1,0.5,0.1,0.7,0.3
						c0.2,0.1,0.3,0.3,0.4,0.5c0.1,0.2,0.2,0.4,0.2,0.7c0,0.2,0,0.4-0.1,0.6c-0.1,0.2-0.2,0.3-0.3,0.4c-0.1,0.1-0.3,0.2-0.5,0.3
						c-0.2,0.1-0.3,0.1-0.5,0.1L59.8,36.9z M58.9,36.7h0.5l-1.7-2.5l0.1,0c0.2,0,0.4-0.1,0.6-0.1c0.2-0.1,0.3-0.2,0.5-0.3
						c0.1-0.1,0.2-0.2,0.3-0.4c0.1-0.1,0.1-0.3,0.1-0.5c0-0.2,0-0.5-0.1-0.6c-0.1-0.2-0.2-0.3-0.4-0.4c-0.2-0.1-0.4-0.2-0.6-0.2
						c-0.2,0-0.5-0.1-0.8-0.1h-1.6v5.2h0.4v-2.5h1.1l0,0L58.9,36.7z M57.3,33.9h-1.1v-2h1.1c0.2,0,0.4,0,0.6,0.1
						c0.2,0,0.4,0.1,0.5,0.2c0.1,0.1,0.2,0.2,0.3,0.3c0.1,0.1,0.1,0.3,0.1,0.5c0,0.3-0.1,0.6-0.4,0.8C58.2,33.9,57.8,33.9,57.3,33.9
						z M56.3,33.8h1c0.5,0,0.8-0.1,1.1-0.2c0.2-0.1,0.4-0.4,0.4-0.6c0-0.2,0-0.3-0.1-0.4c-0.1-0.1-0.2-0.2-0.3-0.3
						c-0.1-0.1-0.3-0.1-0.4-0.2c-0.2,0-0.4-0.1-0.6-0.1h-1V33.8z"/>
				</g>
				<g>
					<path class="st0" d="M61.8,36.3H65v0.5h-3.7v-5.3h3.6V32h-3v1.8h2.8v0.5h-2.8V36.3z"/>
					<path class="st0" d="M65,36.9h-3.9v-5.5h3.8v0.6h-3v1.7h2.8v0.6h-2.8v1.9H65V36.9z M61.3,36.7h3.6v-0.3h-3.1v-2.2h2.8v-0.3
						h-2.8v-2h3v-0.3h-3.5V36.7z"/>
				</g>
				<g>
					<path class="st0" d="M66.9,36.8h-0.7l2.5-5.3h0.6l2.5,5.3h-0.7l-0.6-1.4h-3L66.9,36.8z M67.7,34.9h2.6L69,32.1L67.7,34.9z"/>
					<path class="st0" d="M72,36.9h-0.8l-0.6-1.4h-2.9l-0.6,1.4h-0.8l0.1-0.1l2.5-5.4h0.7l0,0L72,36.9z M71.2,36.7h0.5l-2.4-5.2
						h-0.5l-2.5,5.2h0.5l0.6-1.4h3.1L71.2,36.7z M70.4,35h-2.8l0.1-0.1l1.4-3L70.4,35z M67.8,34.9h2.3L69,32.3L67.8,34.9z"/>
				</g>
				<g>
					<path class="st0" d="M73.9,36.3h2.7v0.5h-3.3v-5.3h0.6V36.3z"/>
					<path class="st0" d="M76.7,36.9h-3.5v-5.5H74v4.8h2.7V36.9z M73.4,36.7h3.2v-0.3h-2.7v-4.8h-0.4V36.7z"/>
				</g>
				<g>
					<path class="st0" d="M81.3,36.3h3.1v0.5h-3.7v-5.3h3.6V32h-3v1.8h2.8v0.5h-2.8V36.3z"/>
					<path class="st0" d="M84.6,36.9h-3.9v-5.5h3.8v0.6h-3v1.7h2.8v0.6h-2.8v1.9h3.1V36.9z M80.8,36.7h3.6v-0.3h-3.1v-2.2h2.8v-0.3
						h-2.8v-2h3v-0.3h-3.5V36.7z"/>
				</g>
				<g>
					<path class="st0" d="M89.1,32.4c-0.1-0.2-0.3-0.3-0.5-0.4c-0.2-0.1-0.4-0.1-0.7-0.1c-0.1,0-0.3,0-0.4,0.1
						c-0.1,0-0.3,0.1-0.4,0.2c-0.1,0.1-0.2,0.2-0.3,0.3c-0.1,0.1-0.1,0.3-0.1,0.4c0,0.2,0,0.3,0.1,0.4c0.1,0.1,0.2,0.2,0.3,0.3
						c0.1,0.1,0.3,0.1,0.4,0.2c0.2,0,0.3,0.1,0.5,0.1c0.2,0.1,0.4,0.1,0.6,0.2c0.2,0.1,0.4,0.2,0.6,0.3c0.2,0.1,0.3,0.3,0.4,0.4
						c0.1,0.2,0.2,0.4,0.2,0.7c0,0.3-0.1,0.5-0.2,0.7c-0.1,0.2-0.3,0.4-0.4,0.5c-0.2,0.1-0.4,0.2-0.6,0.3C88.2,36.9,88,37,87.7,37
						c-0.2,0-0.4,0-0.5,0c-0.2,0-0.3-0.1-0.5-0.1c-0.2-0.1-0.3-0.1-0.4-0.2c-0.1-0.1-0.3-0.2-0.4-0.3l0.5-0.3
						c0.1,0.2,0.3,0.4,0.5,0.5c0.2,0.1,0.5,0.2,0.8,0.2c0.2,0,0.3,0,0.5-0.1c0.2,0,0.3-0.1,0.4-0.2c0.1-0.1,0.2-0.2,0.3-0.3
						c0.1-0.1,0.1-0.3,0.1-0.4c0-0.2,0-0.3-0.1-0.5c-0.1-0.1-0.2-0.2-0.3-0.3c-0.1-0.1-0.3-0.1-0.5-0.2c-0.2-0.1-0.4-0.1-0.5-0.2
						c-0.2-0.1-0.4-0.1-0.6-0.2c-0.2-0.1-0.4-0.2-0.5-0.3c-0.1-0.1-0.3-0.3-0.4-0.4c-0.1-0.2-0.1-0.4-0.1-0.6c0-0.3,0.1-0.5,0.2-0.7
						c0.1-0.2,0.3-0.3,0.4-0.5c0.2-0.1,0.4-0.2,0.6-0.3c0.2-0.1,0.4-0.1,0.7-0.1c0.4,0,0.7,0.1,1,0.2c0.3,0.1,0.5,0.3,0.6,0.5
						L89.1,32.4z"/>
					<path class="st0" d="M87.7,37c-0.2,0-0.4,0-0.5-0.1c-0.2,0-0.4-0.1-0.5-0.1c-0.2-0.1-0.3-0.2-0.5-0.3c-0.1-0.1-0.3-0.2-0.4-0.4
						l-0.1-0.1l0.6-0.4l0,0.1c0.1,0.2,0.3,0.3,0.5,0.5c0.2,0.1,0.5,0.2,0.8,0.2c0.1,0,0.3,0,0.4-0.1c0.1,0,0.3-0.1,0.4-0.2
						c0.1-0.1,0.2-0.2,0.3-0.3c0.1-0.1,0.1-0.3,0.1-0.4c0-0.2,0-0.3-0.1-0.4c-0.1-0.1-0.2-0.2-0.3-0.3c-0.1-0.1-0.3-0.1-0.4-0.2
						c-0.2-0.1-0.4-0.1-0.5-0.2c-0.2-0.1-0.4-0.1-0.6-0.2c-0.2-0.1-0.4-0.2-0.5-0.3c-0.2-0.1-0.3-0.3-0.4-0.4
						C86,33.3,86,33.1,86,32.8c0-0.3,0.1-0.5,0.2-0.7c0.1-0.2,0.3-0.4,0.5-0.5c0.2-0.1,0.4-0.2,0.6-0.3c0.2-0.1,0.5-0.1,0.7-0.1
						c0.4,0,0.8,0.1,1,0.2c0.3,0.1,0.5,0.3,0.7,0.5l0,0.1l-0.6,0.4l0-0.1c-0.1-0.1-0.3-0.3-0.5-0.4c-0.2-0.1-0.4-0.1-0.7-0.1
						c-0.1,0-0.3,0-0.4,0.1c-0.1,0-0.3,0.1-0.4,0.2c-0.1,0.1-0.2,0.2-0.3,0.3c-0.1,0.1-0.1,0.2-0.1,0.4c0,0.2,0,0.3,0.1,0.4
						c0.1,0.1,0.2,0.2,0.3,0.3c0.1,0.1,0.2,0.1,0.4,0.2c0.1,0,0.3,0.1,0.5,0.2c0.2,0.1,0.4,0.1,0.6,0.2c0.2,0.1,0.4,0.2,0.6,0.3
						c0.2,0.1,0.3,0.3,0.4,0.5c0.1,0.2,0.2,0.4,0.2,0.7c0,0.3-0.1,0.5-0.2,0.7c-0.1,0.2-0.3,0.4-0.5,0.5c-0.2,0.1-0.4,0.2-0.6,0.3
						C88.2,37,88,37,87.7,37z M86,36.2c0.1,0.1,0.2,0.2,0.3,0.3c0.1,0.1,0.3,0.2,0.4,0.2c0.2,0.1,0.3,0.1,0.5,0.1
						c0.4,0.1,0.8,0.1,1.2,0c0.2-0.1,0.4-0.1,0.6-0.3c0.2-0.1,0.3-0.3,0.4-0.5c0.1-0.2,0.2-0.4,0.2-0.6c0-0.2,0-0.5-0.1-0.6
						c-0.1-0.2-0.2-0.3-0.4-0.4c-0.2-0.1-0.3-0.2-0.5-0.3c-0.2-0.1-0.4-0.1-0.6-0.2c-0.2,0-0.3-0.1-0.5-0.2
						c-0.2-0.1-0.3-0.1-0.4-0.2c-0.1-0.1-0.2-0.2-0.3-0.3c-0.1-0.1-0.1-0.3-0.1-0.5c0-0.2,0-0.3,0.1-0.5c0.1-0.1,0.2-0.2,0.3-0.3
						c0.1-0.1,0.3-0.2,0.4-0.2c0.2,0,0.3-0.1,0.5-0.1c0.3,0,0.5,0.1,0.8,0.2c0.2,0.1,0.3,0.2,0.5,0.3l0.3-0.3
						c-0.1-0.1-0.3-0.3-0.6-0.4c-0.3-0.1-0.6-0.2-1-0.2c-0.2,0-0.4,0-0.6,0.1c-0.2,0.1-0.4,0.1-0.6,0.3c-0.2,0.1-0.3,0.3-0.4,0.4
						c-0.1,0.2-0.2,0.4-0.2,0.6c0,0.2,0,0.4,0.1,0.6c0.1,0.2,0.2,0.3,0.3,0.4c0.1,0.1,0.3,0.2,0.5,0.3c0.2,0.1,0.4,0.1,0.6,0.2
						c0.2,0.1,0.4,0.1,0.5,0.2c0.2,0.1,0.3,0.1,0.5,0.2c0.1,0.1,0.3,0.2,0.3,0.3c0.1,0.1,0.1,0.3,0.1,0.5c0,0.2,0,0.3-0.1,0.5
						c-0.1,0.1-0.2,0.3-0.3,0.3c-0.1,0.1-0.3,0.2-0.4,0.2c-0.2,0-0.3,0.1-0.5,0.1c-0.3,0-0.6-0.1-0.8-0.2c-0.2-0.1-0.4-0.3-0.5-0.4
						L86,36.2z"/>
				</g>
				<g>
					<path class="st0" d="M93.5,36.8h-0.6V32h-2v-0.5h4.5V32h-2V36.8z"/>
					<path class="st0" d="M93.6,36.9h-0.7v-4.8h-2v-0.6h4.7v0.6h-2V36.9z M93,36.7h0.4v-4.8h2v-0.3H91v0.3h2V36.7z"/>
				</g>
				<g>
					<path class="st0" d="M96.2,36.8h-0.7l2.5-5.3h0.6l2.5,5.3h-0.7l-0.6-1.4h-3L96.2,36.8z M97.1,34.9h2.6l-1.3-2.8L97.1,34.9z"/>
					<path class="st0" d="M101.3,36.9h-0.8l-0.6-1.4h-2.9l-0.6,1.4h-0.8l0.1-0.1l2.5-5.4h0.7l0,0L101.3,36.9z M100.6,36.7h0.5
						l-2.4-5.2h-0.5l-2.5,5.2h0.5l0.6-1.4h3.1L100.6,36.7z M99.8,35H97l0-0.1l1.4-3L99.8,35z M97.2,34.9h2.3l-1.2-2.6L97.2,34.9z"/>
				</g>
				<g>
					<path class="st0" d="M103.9,36.8h-0.6V32h-2v-0.5h4.5V32h-2V36.8z"/>
					<path class="st0" d="M104,36.9h-0.7v-4.8h-2v-0.6h4.7v0.6h-2V36.9z M103.4,36.7h0.4v-4.8h2v-0.3h-4.4v0.3h2V36.7z"/>
				</g>
				<g>
					<path class="st0" d="M107.9,36.3h3.1v0.5h-3.7v-5.3h3.6V32h-3v1.8h2.8v0.5h-2.8V36.3z"/>
					<path class="st0" d="M111.1,36.9h-3.9v-5.5h3.8v0.6h-3v1.7h2.8v0.6H108v1.9h3.1V36.9z M107.4,36.7h3.6v-0.3h-3.1v-2.2h2.8v-0.3
						h-2.8v-2h3v-0.3h-3.5V36.7z"/>
				</g>
				<g>
					<path class="st0" d="M118.3,35.9L118.3,35.9l2-4.4h0.9v5.3h-0.6v-4.6h0l-2.1,4.6h-0.3l-2.1-4.6h0v4.6h-0.6v-5.3h0.9L118.3,35.9
						z"/>
					<path class="st0" d="M121.3,36.9h-0.7v-4.4l-2,4.4h-0.4l-2-4.4v4.4h-0.7v-5.5h1l1.9,4.3l1.9-4.3h1V36.9z M120.7,36.7h0.4v-5.2
						h-0.8l-2,4.4h-0.1l0,0l-2-4.4h-0.8v5.2h0.4v-4.6h0.1l0,0l2.1,4.6h0.2l2.1-4.6h0.1l0,0.1V36.7z"/>
				</g>
				<g>
					<path class="st0" d="M123.3,36.8h-0.7l2.5-5.3h0.6l2.5,5.3h-0.7l-0.6-1.4h-3L123.3,36.8z M124.2,34.9h2.6l-1.3-2.8L124.2,34.9z
						"/>
					<path class="st0" d="M128.4,36.9h-0.8l-0.6-1.4H124l-0.6,1.4h-0.8l0.1-0.1l2.5-5.4h0.7l0,0L128.4,36.9z M127.7,36.7h0.5
						l-2.4-5.2h-0.5l-2.5,5.2h0.5l0.6-1.4h3.1L127.7,36.7z M126.9,35h-2.8l0-0.1l1.4-3L126.9,35z M124.3,34.9h2.3l-1.2-2.6
						L124.3,34.9z"/>
				</g>
				<g>
					<path class="st0" d="M133.9,36L133.9,36l0-4.5h0.6v5.3h-0.7l-3.4-4.6h0v4.6h-0.6v-5.3h0.7L133.9,36z"/>
					<path class="st0" d="M134.6,36.9h-0.9l0,0l-3.3-4.4v4.4h-0.7v-5.5h0.9l0,0l3.3,4.4v-4.4h0.7V36.9z M133.8,36.7h0.6v-5.2H134
						v4.5h-0.1l0,0l-3.4-4.5h-0.6v5.2h0.4v-4.6h0.1l0,0L133.8,36.7z"/>
				</g>
				<g>
					<path class="st0" d="M136.6,36.8H136l2.5-5.3h0.6l2.5,5.3H141l-0.6-1.4h-3L136.6,36.8z M137.5,34.9h2.6l-1.3-2.8L137.5,34.9z"
						/>
					<path class="st0" d="M141.7,36.9h-0.8l-0.6-1.4h-2.9l-0.6,1.4h-0.8l0.1-0.1l2.6-5.4h0.7l0,0L141.7,36.9z M141,36.7h0.5
						l-2.4-5.2h-0.5l-2.5,5.2h0.5l0.6-1.4h3.1L141,36.7z M140.2,35h-2.8l0.1-0.1l1.4-3L140.2,35z M137.6,34.9h2.3l-1.2-2.6
						L137.6,34.9z"/>
				</g>
				<g>
					<path class="st0" d="M147.2,32.5c-0.2-0.2-0.4-0.3-0.7-0.5c-0.3-0.1-0.6-0.2-1-0.2c-0.4,0-0.7,0.1-1,0.2
						c-0.3,0.1-0.6,0.3-0.8,0.5c-0.2,0.2-0.4,0.5-0.5,0.7c-0.1,0.3-0.2,0.6-0.2,0.9c0,0.3,0.1,0.6,0.2,0.9c0.1,0.3,0.3,0.5,0.5,0.7
						c0.2,0.2,0.5,0.4,0.8,0.5c0.3,0.1,0.6,0.2,1,0.2c0.3,0,0.6,0,0.9-0.1c0.3-0.1,0.5-0.1,0.7-0.2v-1.6h-1.4V34h2v2.4
						c-0.3,0.2-0.7,0.3-1,0.4c-0.4,0.1-0.8,0.1-1.2,0.1c-0.4,0-0.8-0.1-1.2-0.2c-0.4-0.1-0.7-0.3-1-0.6c-0.3-0.2-0.5-0.5-0.6-0.9
						c-0.1-0.3-0.2-0.7-0.2-1.1c0-0.4,0.1-0.8,0.2-1.1c0.2-0.3,0.4-0.6,0.6-0.9c0.3-0.2,0.6-0.4,1-0.6c0.4-0.1,0.8-0.2,1.2-0.2
						c0.5,0,0.9,0.1,1.2,0.2c0.3,0.1,0.6,0.3,0.9,0.5L147.2,32.5z"/>
					<path class="st0" d="M145.5,37c-0.4,0-0.9-0.1-1.2-0.2c-0.4-0.1-0.7-0.3-1-0.6c-0.3-0.3-0.5-0.6-0.7-0.9
						c-0.2-0.4-0.2-0.7-0.2-1.2c0-0.4,0.1-0.8,0.2-1.2c0.2-0.3,0.4-0.7,0.7-0.9c0.3-0.3,0.6-0.5,1-0.6c0.4-0.1,0.8-0.2,1.2-0.2
						c0.5,0,0.9,0.1,1.3,0.2c0.4,0.1,0.7,0.3,0.9,0.5l0.1,0.1l-0.5,0.5l0,0c-0.2-0.2-0.4-0.3-0.7-0.4c-0.3-0.1-0.6-0.2-0.9-0.2
						c-0.4,0-0.7,0.1-1,0.2c-0.3,0.1-0.5,0.3-0.7,0.5c-0.2,0.2-0.4,0.4-0.5,0.7c-0.1,0.3-0.2,0.6-0.2,0.9c0,0.3,0.1,0.6,0.2,0.9
						c0.1,0.3,0.3,0.5,0.5,0.7c0.2,0.2,0.5,0.4,0.7,0.5c0.3,0.1,0.6,0.2,1,0.2c0.3,0,0.6,0,0.9-0.1c0.2-0.1,0.5-0.1,0.6-0.2v-1.5
						h-1.4V34h2.1v2.5l0,0c-0.3,0.2-0.7,0.3-1,0.4C146.3,37,145.9,37,145.5,37z M145.5,31.4c-0.4,0-0.8,0.1-1.2,0.2
						c-0.4,0.1-0.7,0.3-0.9,0.6c-0.3,0.2-0.5,0.5-0.6,0.9c-0.1,0.3-0.2,0.7-0.2,1.1c0,0.4,0.1,0.8,0.2,1.1c0.1,0.3,0.4,0.6,0.6,0.9
						c0.3,0.2,0.6,0.4,0.9,0.6c0.4,0.1,0.8,0.2,1.2,0.2c0.4,0,0.8,0,1.1-0.1c0.3-0.1,0.7-0.2,1-0.4v-2.3h-1.8v0.3h1.4v1.7l0,0
						c-0.2,0.1-0.4,0.2-0.7,0.3c-0.3,0.1-0.6,0.1-0.9,0.1c-0.4,0-0.7-0.1-1-0.2c-0.3-0.1-0.6-0.3-0.8-0.5c-0.2-0.2-0.4-0.5-0.5-0.8
						c-0.1-0.3-0.2-0.6-0.2-0.9c0-0.3,0.1-0.6,0.2-0.9c0.1-0.3,0.3-0.5,0.5-0.8c0.2-0.2,0.5-0.4,0.8-0.5c0.3-0.1,0.7-0.2,1-0.2
						c0.4,0,0.7,0.1,1,0.2c0.3,0.1,0.5,0.2,0.7,0.4l0.3-0.3c-0.2-0.2-0.5-0.3-0.8-0.5C146.4,31.5,146,31.4,145.5,31.4z"/>
				</g>
				<g>
					<path class="st0" d="M150.4,36.3h3.1v0.5h-3.7v-5.3h3.6V32h-3v1.8h2.8v0.5h-2.8V36.3z"/>
					<path class="st0" d="M153.6,36.9h-3.9v-5.5h3.8v0.6h-3v1.7h2.8v0.6h-2.8v1.9h3.1V36.9z M149.9,36.7h3.6v-0.3h-3.1v-2.2h2.8
						v-0.3h-2.8v-2h3v-0.3h-3.5V36.7z"/>
				</g>
				<g>
					<path class="st0" d="M158,35.9L158,35.9l2-4.4h0.9v5.3h-0.6v-4.6h0l-2.1,4.6h-0.3l-2.1-4.6h0v4.6h-0.6v-5.3h0.9L158,35.9z"/>
					<path class="st0" d="M161,36.9h-0.7v-4.4l-2,4.4h-0.4l-2-4.4v4.4h-0.7v-5.5h1l1.9,4.3l1.9-4.3h1V36.9z M160.4,36.7h0.4v-5.2
						h-0.8l-2,4.4H158l0,0l-2-4.4h-0.8v5.2h0.4v-4.6h0.1l0,0l2.1,4.6h0.2l2.1-4.6h0.1l0,0.1V36.7z"/>
				</g>
				<g>
					<path class="st0" d="M163.6,36.3h3.1v0.5h-3.7v-5.3h3.6V32h-3v1.8h2.8v0.5h-2.8V36.3z"/>
					<path class="st0" d="M166.9,36.9H163v-5.5h3.8v0.6h-3v1.7h2.8v0.6h-2.8v1.9h3.1V36.9z M163.1,36.7h3.6v-0.3h-3.1v-2.2h2.8v-0.3
						h-2.8v-2h3v-0.3h-3.5V36.7z"/>
				</g>
				<g>
					<path class="st0" d="M172.6,36L172.6,36l0-4.5h0.6v5.3h-0.7l-3.4-4.6h0v4.6h-0.6v-5.3h0.7L172.6,36z"/>
					<path class="st0" d="M173.3,36.9h-0.9l0,0l-3.3-4.4v4.4h-0.7v-5.5h0.9l0,0l3.3,4.4v-4.4h0.7V36.9z M172.5,36.7h0.6v-5.2h-0.4
						v4.5h-0.1l0,0l-3.4-4.5h-0.6v5.2h0.4v-4.6h0.1l0,0L172.5,36.7z"/>
				</g>
				<g>
					<path class="st0" d="M177.2,36.8h-0.6V32h-2v-0.5h4.5V32h-2V36.8z"/>
					<path class="st0" d="M177.3,36.9h-0.7v-4.8h-2v-0.6h4.7v0.6h-2V36.9z M176.7,36.7h0.4v-4.8h2v-0.3h-4.4v0.3h2V36.7z"/>
				</g>
			</g>
		</g>
	</g>
	<g>
		<g>
			<path class="st2" d="M37.1,40.2c-0.4,0-0.7-0.3-0.7-0.7V25.6c0-0.2,0.1-0.4,0.2-0.5c0.2-0.1,0.4-0.2,0.6-0.2l8.5,0.6V3.6
				L34.4,8.4v30.2c0,0.2-0.1,0.4-0.3,0.6c-0.2,0.1-0.4,0.2-0.6,0.1l-3.2-0.7c-0.3-0.1-0.6-0.4-0.6-0.7V22.8l-4.5-0.1
				c-0.4,0-0.7-0.3-0.7-0.7v-9.8l-2.6,1v22.5c0,0.4-0.3,0.7-0.7,0.7c-0.4,0-0.7-0.3-0.7-0.7v-23c0-0.3,0.2-0.6,0.5-0.7l4.1-1.5
				c0.2-0.1,0.5-0.1,0.7,0.1c0.2,0.1,0.3,0.4,0.3,0.6v10.1l4.5,0.1c0.4,0,0.7,0.3,0.7,0.7v15.2l1.7,0.4V7.9c0-0.3,0.2-0.6,0.5-0.7
				l12.7-5.4c0.2-0.1,0.5-0.1,0.7,0.1C47,2,47.1,2.3,47.1,2.5v23.8c0,0.2-0.1,0.4-0.2,0.5C46.7,27,46.5,27,46.3,27l-8.5-0.6v13.1
				C37.9,39.9,37.5,40.2,37.1,40.2z"/>
		</g>
		<g>
			<path class="st3" d="M18.7,40.6c-0.4,0-0.7-0.3-0.7-0.7V26c0-0.2,0.1-0.4,0.2-0.5c0.1-0.1,0.4-0.2,0.6-0.2l8.5,0.6V4.1L16,8.8V39
				c0,0.2-0.1,0.4-0.3,0.6c-0.2,0.1-0.4,0.2-0.6,0.1L11.9,39c-0.3-0.1-0.6-0.4-0.6-0.7V23.2l-4.5-0.1c-0.4,0-0.7-0.3-0.7-0.7v-9.8
				l-2.6,1V36c0,0.4-0.3,0.7-0.7,0.7C2.3,36.7,2,36.4,2,36V13c0-0.3,0.2-0.6,0.5-0.7l4.1-1.5c0.2-0.1,0.5,0,0.7,0.1
				c0.2,0.1,0.3,0.4,0.3,0.6v10.1l4.5,0.1c0.4,0,0.7,0.3,0.7,0.7v15.2l1.7,0.4V8.3c0-0.3,0.2-0.6,0.4-0.7l12.7-5.4
				c0.2-0.1,0.5-0.1,0.7,0.1c0.2,0.1,0.3,0.4,0.3,0.6v23.8c0,0.2-0.1,0.4-0.2,0.5c-0.2,0.1-0.4,0.2-0.6,0.2l-8.5-0.6v13.1
				C19.4,40.3,19.1,40.6,18.7,40.6z"/>
		</g>
	</g>
</g>
</svg>
