<?xml version="1.0" encoding="utf-8"?>
<!-- Generator: Adobe Illustrator 25.0.0, SVG Export Plug-In . SVG Version: 6.00 Build 0)  -->
<svg version="1.1" id="レイヤー_1" xmlns="http://www.w3.org/2000/svg" xmlns:xlink="http://www.w3.org/1999/xlink" x="0px"
	 y="0px" viewBox="0 0 103.5 27.8" style="enable-background:new 0 0 103.5 27.8;" xml:space="preserve">
<style type="text/css">
	.st0{fill:#33AC1B;stroke:#33AC1B;stroke-miterlimit:10;}
	.st1{fill:#33AC1B;}
</style>
<g>
	<g>
		<path class="st0" d="M27.8,25.6c-0.1,0.4,0,0.5,0.4,0.5h1L29,27h-6.4l0.2-0.9h1c1.4,0,1.6-0.1,2.7-2.4c0.7-1.4,1.3-2.6,1.8-3.8
			H15.5c-3.7,4.8-6.8,7-11.1,7c-2.9,0-3.9-1.3-3.7-2.7c0.2-0.9,0.6-1.5,1.5-1.5c0.7,0,1.1,0.5,1,1.1C3.1,25,2.5,25,2.4,25.4
			c-0.1,0.4,0.5,0.7,2.1,0.7c4.7,0,8.3-4.7,13-11.4c3-4.3,7.1-8.9,11.5-11.2c-1.4-1-3.3-1.6-5.7-1.6c-7.7,0-14.6,6-16,13.5
			c-0.5,3-0.1,5.6,0.7,7.3l-0.8,0.5c-0.8-1.8-1.3-4.6-0.7-7.8C7.9,7.2,15,1.1,23.4,1.1c2.8,0,5.1,0.8,6.7,2C31.6,2.4,33.2,2,34.8,2
			l-0.1,0.7c-1.4,0-2.7,0.4-4,0.8c2.2,2.1,2.9,5.3,2.3,8.6C32.3,16.8,28,24.5,27.8,25.6z M29.7,4c-5.2,2.6-9,8.5-12.6,13.7
			c-0.3,0.5-0.7,1-1,1.4h12.5c2.1-4.5,2.7-6.5,3-8C32.2,8.1,31.5,5.7,29.7,4z"/>
		<path class="st1" d="M44.2,18.3c-1.1,0-1.5-0.8-1.4-1.6c0.2-0.9,0.5-1.6,1-2c-0.3-0.1-0.6-0.1-1-0.1c-4.6,0-6.9,5.3-7.3,7.3
			c-0.5,2.6,1.1,3.8,2.8,3.8c1.4,0,3.3-1.3,4.9-3.2l1,0.8c-3.2,3.7-5.1,4.5-7.8,4.5s-4.8-2.1-4.2-5.4c0.9-5.3,5.9-9,10.9-9
			c2.3,0,3.9,1.1,3.5,3.2C46.4,17.5,45.2,18.3,44.2,18.3z"/>
		<path class="st1" d="M58.5,18.3c-1.1,0-1.5-0.8-1.4-1.6c0.2-0.9,0.5-1.6,1-2c-0.3-0.1-0.6-0.1-1-0.1c-4.6,0-6.9,5.3-7.3,7.3
			c-0.5,2.6,1.1,3.8,2.8,3.8c1.4,0,3.3-1.3,4.9-3.2l1,0.8c-3.2,3.7-5.1,4.5-7.8,4.5c-2.7,0-4.8-2.1-4.2-5.4c0.9-5.3,5.9-9,10.9-9
			c2.3,0,3.9,1.1,3.5,3.2C60.6,17.5,59.4,18.3,58.5,18.3z"/>
		<path class="st1" d="M63.9,23.5c0.2,1.3,1.2,2.7,2.8,2.7s3.9-1.8,5.2-3.7l0.9,0.6c-1.8,2.5-4.3,4.6-7.4,4.6c-3.8,0-5.4-2.3-5-5
			c0.8-4.3,5.9-9.4,10.6-9.4c2.2,0,3.4,1.6,3.1,3.3C73.6,19.8,70.4,22.4,63.9,23.5z M69.8,14.7c-1.8,0-4.7,1.9-5.7,7.5
			c6.1-0.9,7.2-3.5,7.5-4.9C71.8,15.8,70.9,14.7,69.8,14.7z"/>
		<path class="st1" d="M85.6,17.8c-1.3,0-1.7-0.8-1.6-1.5c0.1-0.6,0.6-1.4,0.7-1.6c0-0.1-0.2-0.2-1.1-0.2c-1.2,0-2.2,0.9-2.5,2.1
			c-0.5,2.6,5.8,1.7,5.1,6c-0.4,2.5-3.4,5.1-7.1,5.1c-1.7,0-5-0.9-4.5-3.3c0.2-1.3,1.4-2,2.3-2c1,0,1.8,0.8,1.7,1.6
			c-0.1,0.8-1.1,1.5-1.2,2c-0.1,0.3,0.7,0.6,1.9,0.6c2.3,0,3.8-1.3,4.1-2.7c0.6-3.4-5.5-2.3-4.7-6.3c0.3-1.9,2.6-4.3,5.9-4.3
			c1.6,0,3.7,0.9,3.3,2.9C87.3,17.5,86.1,17.8,85.6,17.8z"/>
		<path class="st1" d="M98.9,17.8c-1.3,0-1.7-0.8-1.6-1.5c0.1-0.6,0.6-1.4,0.7-1.6c0-0.1-0.2-0.2-1.1-0.2c-1.2,0-2.2,0.9-2.5,2.1
			c-0.5,2.6,5.8,1.7,5.1,6c-0.4,2.5-3.4,5.1-7.1,5.1c-1.7,0-5-0.9-4.5-3.3c0.2-1.3,1.4-2,2.3-2c1,0,1.8,0.8,1.7,1.6
			c-0.1,0.8-1.1,1.5-1.2,2c-0.1,0.3,0.7,0.6,1.9,0.6c2.3,0,3.8-1.3,4.1-2.7c0.6-3.4-5.5-2.3-4.7-6.3c0.3-1.9,2.6-4.3,5.9-4.3
			c1.6,0,3.7,0.9,3.3,2.9C100.7,17.5,99.4,17.8,98.9,17.8z"/>
	</g>
</g>
</svg>
