<svg id="レイヤー_1" data-name="レイヤー 1" xmlns="http://www.w3.org/2000/svg" viewBox="0 0 150.29 27.78">
  <defs>
    <style>
      .cls-1 {
        fill: #e84c4c;
      }
    </style>
  </defs>
  <title>text_usecases</title>
  <g>
    <path class="cls-1" d="M25,16.63c.33,0,.49.42.49,1.28a5.8,5.8,0,0,1-.16,1.72,8.81,8.81,0,0,1-2.52,3.11,21.34,21.34,0,0,1-4.34,2.93,9.08,9.08,0,0,1-3.87,1.2,1.57,1.57,0,0,1-1.22-.56,2.07,2.07,0,0,1-.5-1.46q0-1.61,1.84-4.92A68.7,68.7,0,0,1,19.21,13Q14.85,18.08,13,19.86t-3.25,3a24.69,24.69,0,0,1-2.56,2,8.78,8.78,0,0,1-4.3,1.79,2.66,2.66,0,0,1-2.26-.88A3.09,3.09,0,0,1,0,23.87q0-3.12,3.66-8.79a88.56,88.56,0,0,1,6.73-9.26C8.65,7.35,7.46,8.12,6.8,8.12a1.76,1.76,0,0,1-1.47-.61,2.09,2.09,0,0,1-.49-1.37,2,2,0,0,1,.72-1.45C6.05,4.24,6.4,4,6.62,4S7,4,7,4.07a1.4,1.4,0,0,1-.27.39,1,1,0,0,0-.28.46c0,.08.08.13.24.13A8.88,8.88,0,0,0,9.72,3.62a36.61,36.61,0,0,0,4-2.78,1.52,1.52,0,0,1,1-.38,2.32,2.32,0,0,1,1.13.29q0-.09.3,0a2.09,2.09,0,0,1,.54.4.76.76,0,0,1,.27.51.69.69,0,0,1-.14.43Q9.4,11.84,7.46,14.78q-3.92,6-3.92,7.77c0,.42.18.64.53.64s1.36-.68,3-2q6.8-5.52,19-19.51A1.18,1.18,0,0,1,27,1.13h.17a2.7,2.7,0,0,0,.41-.07A6.84,6.84,0,0,1,28.71,1c1.2,0,1.8.22,1.8.67a2.21,2.21,0,0,1-.53,1c-.35.48-1.09,1.52-2.21,3.11s-2.52,3.6-4.18,6.05-3.11,4.69-4.32,6.74-1.82,3.35-1.82,3.9c0,0,0,0,.07,0a3.77,3.77,0,0,0,.56-.25,21.24,21.24,0,0,0,3.64-2.59,28.71,28.71,0,0,0,2.64-2.4Q24.92,16.63,25,16.63Z"/>
    <path class="cls-1" d="M30,23l0,.29a1,1,0,0,0,.34.78,1,1,0,0,0,.64.33,10.44,10.44,0,0,0,3.84-.66c1.11-.43,1.67-.86,1.67-1.3,0-.2-.21-.38-.61-.53a17.77,17.77,0,0,0-2-.56c-1-.22-1.65-.4-2.09-.52s-.77-.25-1-.35a3.72,3.72,0,0,1-.77-.46,2,2,0,0,1-.85-1.78,3.87,3.87,0,0,1,.87-2.34,8.13,8.13,0,0,1,2.2-2A19.33,19.33,0,0,1,35,12.44,13.53,13.53,0,0,1,40,11.19c1.33,0,2.16.29,2.47.87a1.51,1.51,0,0,1,.14.68v.13a2.45,2.45,0,0,1-.4,1.5,3.44,3.44,0,0,1-1.28,1,3.46,3.46,0,0,1-1.4.44,2,2,0,0,1-.65-.07.82.82,0,0,1-.22-.19.58.58,0,0,0-.23-.18c-.09,0-.13-.12-.13-.27a.72.72,0,0,1,.18-.44,1.38,1.38,0,0,0,.25-.48,8.12,8.12,0,0,0-2.49.55A11.3,11.3,0,0,0,34,15.81,11.52,11.52,0,0,0,32.48,17c-.41.37-.61.65-.61.82s.27.32.83.42a27,27,0,0,1,4.91,1.29,3.79,3.79,0,0,1,1.63,1.23A2.3,2.3,0,0,1,39.69,22a3.27,3.27,0,0,1-.92,2.19,7.34,7.34,0,0,1-2.28,1.68,11.9,11.9,0,0,1-5.07,1.43,4.94,4.94,0,0,1-3-.66,2,2,0,0,1-.82-1.57,3.25,3.25,0,0,1,.46-1.67,1.37,1.37,0,0,1,1.19-.77C29.75,22.62,30,22.75,30,23Z"/>
    <path class="cls-1" d="M57,13.1a2.79,2.79,0,0,1-1,2.1,3.15,3.15,0,0,1-2.2.9c-.26,0-.44-.06-.52-.19a.81.81,0,0,1-.13-.49,2.35,2.35,0,0,1,.08-.6,7.89,7.89,0,0,0-1.45.67,17.88,17.88,0,0,0-2,1.34c-.77.59-1.16,1-1.16,1.31,0,.1.14.15.43.15a4.63,4.63,0,0,0,1.31-.3,4.65,4.65,0,0,1,1.23-.3,1.49,1.49,0,0,1,.46,0,1.53,1.53,0,0,1,.51.55,1.4,1.4,0,0,1,.27.67c0,.16-.15.37-.47.64a3.1,3.1,0,0,1-1.06.6,6.61,6.61,0,0,0-.8.32q-3.81,2.13-3.81,2.93,0,1.41,2.4,1.41a5.78,5.78,0,0,0,3.09-1,24.75,24.75,0,0,0,2.38-1.69c.7-.57,1.15-.92,1.33-1.05a.82.82,0,0,1,.43-.2c.31,0,.47.35.47,1a4.6,4.6,0,0,1-.13,1.39,2.3,2.3,0,0,1-.72.82q-3.87,3.13-7.32,3.14a7.24,7.24,0,0,1-2.94-.5,3,3,0,0,1-2-2.82q0-2.49,3.46-3.78a1.56,1.56,0,0,1-.89-.78,4.38,4.38,0,0,1-.2-1.54,3.59,3.59,0,0,1,1-2.24,7.67,7.67,0,0,1,2.41-1.94A12.17,12.17,0,0,1,55.17,12a2.86,2.86,0,0,1,1.21.29A.88.88,0,0,1,57,13.1Z"/>
    <path class="cls-1" d="M81.66,22.61a12.54,12.54,0,0,0,1.2-.83l.63-.53a1.07,1.07,0,0,1,.6-.31c.24,0,.36.28.36.83a2.83,2.83,0,0,1-.81,1.77,7.07,7.07,0,0,1-2,1.61,18.44,18.44,0,0,1-2.55,1.14,13.73,13.73,0,0,1-4.58,1,5.26,5.26,0,0,1-3.4-1.24,4,4,0,0,1-1.52-3.23,8.92,8.92,0,0,1,1-4,12.59,12.59,0,0,1,2.56-3.5,12.75,12.75,0,0,1,3.63-2.45,9.77,9.77,0,0,1,4.09-.94,2.92,2.92,0,0,1,1.75.56A1.78,1.78,0,0,1,83.4,14a4.28,4.28,0,0,1-1,2.33c-.65.91-1.3,1.37-2,1.37s-1.15-.37-1.15-1.1a2.3,2.3,0,0,1,.54-1,2.43,2.43,0,0,0,.54-1c0-.17-.06-.26-.2-.26a4.16,4.16,0,0,0-2.13.69A18.8,18.8,0,0,0,76,16.46a15.65,15.65,0,0,0-1.76,1.7,6.38,6.38,0,0,0-1.8,4.25A2.23,2.23,0,0,0,73,23.94a2.49,2.49,0,0,0,1.92.64,11.85,11.85,0,0,0,2.7-.32,13.58,13.58,0,0,0,2.23-.69A11.82,11.82,0,0,0,81.66,22.61Z"/>
    <path class="cls-1" d="M100.15,12.89c.91,0,1.37.31,1.37.94a1.06,1.06,0,0,1-.23.74,9.51,9.51,0,0,0-1,1.56c-.51.89-1.08,2-1.7,3.4a16,16,0,0,0-1.2,3.53,2.14,2.14,0,0,0,0,.5c0,.67.18,1,.54,1A2.32,2.32,0,0,0,99.15,24a8.56,8.56,0,0,0,1.32-1.1c.39-.39.76-.79,1.13-1.2s.59-.64.66-.71a.57.57,0,0,1,.33-.09c.22,0,.36.18.41.53a7.64,7.64,0,0,1,.07,1.08,1.77,1.77,0,0,1-.11.78,8.5,8.5,0,0,1-2.3,2.47,5.33,5.33,0,0,1-3.23,1.45,2.53,2.53,0,0,1-2.14-.89,3.09,3.09,0,0,1-.69-2A4.6,4.6,0,0,1,95,22.52a15.57,15.57,0,0,1-3.44,3.3,6.07,6.07,0,0,1-3.17,1.36,2.82,2.82,0,0,1-2-.74,3.34,3.34,0,0,1-1-2.56,8,8,0,0,1,.73-3.29,11.62,11.62,0,0,1,1.93-3,19.22,19.22,0,0,1,2.61-2.49,9.32,9.32,0,0,1,5.53-2.35,3.35,3.35,0,0,1,1.59.33,1.49,1.49,0,0,1,.78.81,2.67,2.67,0,0,1,.73-.82A1.8,1.8,0,0,1,100.15,12.89Zm-2.41,2c-2.06,0-4.19,1.15-6.39,3.43a15.19,15.19,0,0,0-2.16,2.95,6.1,6.1,0,0,0-1,2.35c0,.42.11.63.36.63s1.27-.66,2.81-2a28.37,28.37,0,0,0,3.08-2.93C95,18.62,96.11,17.15,97.74,14.89Z"/>
    <path class="cls-1" d="M106.38,23l0,.29a1,1,0,0,0,.34.78,1,1,0,0,0,.63.33,10.37,10.37,0,0,0,3.84-.66c1.12-.43,1.67-.86,1.67-1.3,0-.2-.2-.38-.6-.53a18.39,18.39,0,0,0-2-.56c-1-.22-1.66-.4-2.09-.52s-.78-.25-1-.35a4.06,4.06,0,0,1-.78-.46,2,2,0,0,1-.84-1.78,3.87,3.87,0,0,1,.87-2.34,8.13,8.13,0,0,1,2.2-2,19.33,19.33,0,0,1,2.83-1.46,13.53,13.53,0,0,1,5-1.25c1.34,0,2.16.29,2.48.87a1.65,1.65,0,0,1,.14.68v.13a2.45,2.45,0,0,1-.4,1.5,3.41,3.41,0,0,1-1.29,1,3.38,3.38,0,0,1-1.39.44,2,2,0,0,1-.65-.07.82.82,0,0,1-.22-.19.58.58,0,0,0-.23-.18c-.09,0-.13-.12-.13-.27a.72.72,0,0,1,.18-.44,1.38,1.38,0,0,0,.25-.48,8.06,8.06,0,0,0-2.49.55,11.69,11.69,0,0,0-2.24,1.11A12,12,0,0,0,108.87,17c-.41.37-.61.65-.61.82s.27.32.83.42A27,27,0,0,1,114,19.52a3.79,3.79,0,0,1,1.63,1.23,2.3,2.3,0,0,1,.45,1.24,3.27,3.27,0,0,1-.92,2.19,7.34,7.34,0,0,1-2.28,1.68,11.9,11.9,0,0,1-5.07,1.43,4.94,4.94,0,0,1-3-.66,2,2,0,0,1-.82-1.57,3.16,3.16,0,0,1,.46-1.67,1.36,1.36,0,0,1,1.18-.77C106.13,22.62,106.38,22.75,106.38,23Z"/>
    <path class="cls-1" d="M133.38,13.1a2.79,2.79,0,0,1-1,2.1,3.15,3.15,0,0,1-2.2.9c-.26,0-.44-.06-.52-.19a.81.81,0,0,1-.13-.49,2.35,2.35,0,0,1,.07-.6,8.15,8.15,0,0,0-1.44.67,17.88,17.88,0,0,0-1.95,1.34c-.78.59-1.16,1-1.16,1.31q0,.15.42.15a4.56,4.56,0,0,0,1.31-.3,4.7,4.7,0,0,1,1.24-.3,1.49,1.49,0,0,1,.46,0,1.53,1.53,0,0,1,.51.55,1.4,1.4,0,0,1,.27.67c0,.16-.16.37-.47.64a3.05,3.05,0,0,1-1.07.6,7,7,0,0,0-.79.32q-3.81,2.13-3.81,2.93,0,1.41,2.4,1.41a5.81,5.81,0,0,0,3.09-1A24.75,24.75,0,0,0,131,22.18c.7-.57,1.14-.92,1.33-1.05a.82.82,0,0,1,.43-.2c.31,0,.47.35.47,1a5,5,0,0,1-.13,1.39,2.53,2.53,0,0,1-.72.82q-3.87,3.13-7.32,3.14a7.32,7.32,0,0,1-3-.5,3,3,0,0,1-2-2.82q0-2.49,3.45-3.78a1.57,1.57,0,0,1-.88-.78,4.15,4.15,0,0,1-.2-1.54,3.63,3.63,0,0,1,1-2.24,7.9,7.9,0,0,1,2.41-1.94A12.17,12.17,0,0,1,131.56,12a2.86,2.86,0,0,1,1.21.29A.88.88,0,0,1,133.38,13.1Z"/>
    <path class="cls-1" d="M137.64,23l0,.29a1,1,0,0,0,.35.78,1,1,0,0,0,.63.33,10.41,10.41,0,0,0,3.84-.66c1.11-.43,1.67-.86,1.67-1.3,0-.2-.2-.38-.6-.53a18.73,18.73,0,0,0-2-.56c-1-.22-1.65-.4-2.08-.52s-.78-.25-1-.35a3.78,3.78,0,0,1-.78-.46,2,2,0,0,1-.85-1.78,3.82,3.82,0,0,1,.88-2.34,8,8,0,0,1,2.19-2,19.45,19.45,0,0,1,2.84-1.46,13.53,13.53,0,0,1,5-1.25c1.34,0,2.16.29,2.47.87a1.51,1.51,0,0,1,.15.68v.13a2.45,2.45,0,0,1-.41,1.5,3.44,3.44,0,0,1-1.28,1,3.42,3.42,0,0,1-1.39.44,2,2,0,0,1-.65-.07.87.87,0,0,1-.23-.19.55.55,0,0,0-.22-.18c-.09,0-.14-.12-.14-.27a.72.72,0,0,1,.18-.44,1.23,1.23,0,0,0,.25-.48,8.19,8.19,0,0,0-2.49.55A11.56,11.56,0,0,0,140.14,17c-.41.37-.62.65-.62.82s.28.32.83.42a27.18,27.18,0,0,1,4.92,1.29,3.75,3.75,0,0,1,1.62,1.23,2.3,2.3,0,0,1,.45,1.24,3.23,3.23,0,0,1-.92,2.19,7.18,7.18,0,0,1-2.27,1.68,11.9,11.9,0,0,1-5.07,1.43,4.94,4.94,0,0,1-3-.66,2,2,0,0,1-.82-1.57,3.16,3.16,0,0,1,.46-1.67,1.35,1.35,0,0,1,1.18-.77C137.4,22.62,137.64,22.75,137.64,23Z"/>
  </g>
</svg>
