<svg id="レイヤー_1" data-name="レイヤー 1" xmlns="http://www.w3.org/2000/svg" viewBox="0 0 103.54 27.79">
  <defs>
    <style>
      .cls-1 {
        fill: #e84c4c;
      }
    </style>
  </defs>
  <title>text_access</title>
  <g>
    <path class="cls-1" d="M24.15,1.25C24.53.42,24.79,0,25,0H25a2.75,2.75,0,0,1,1.1.58c.56.38.83.75.83,1.08s-1.54,4.11-4.62,10.91S17.5,23.19,17.05,24s-.77,1.38-.93,1.65a6.66,6.66,0,0,1-.69.92,2.39,2.39,0,0,1-1.93,1,2.7,2.7,0,0,0-.84.12,2.26,2.26,0,0,1-.43.12c-.38,0-.58-.09-.58-.28a2.47,2.47,0,0,1,.16-.44q.15-.39,4.12-8.77c-2.83-.11-5.31-.19-7.46-.25a72.42,72.42,0,0,0-5.6,8.13,2.85,2.85,0,0,1-.58.84,1.06,1.06,0,0,1-.74.24,1.59,1.59,0,0,1-1-.48A1.45,1.45,0,0,1,0,25.67q0-1.8,4.66-7.73a20.92,20.92,0,0,0-2.77.11,6.16,6.16,0,0,1-.75.11c-.33,0-.49-.28-.49-.83a1.74,1.74,0,0,1,1-1.44,4.66,4.66,0,0,1,2.59-.62l.45,0c.75,0,1.51-.07,2.3-.09a95.92,95.92,0,0,1,8.23-8.58A35.24,35.24,0,0,1,22.64,1a1.71,1.71,0,0,1,.8-.24A1.12,1.12,0,0,1,24.15,1.25ZM22.89,3.79a78,78,0,0,0-12,11.37q3.2.08,6.47.27Q20.6,8.52,22.89,3.79Z"/>
    <path class="cls-1" d="M36.48,22.58a13.14,13.14,0,0,0,1.2-.82l.64-.53a1,1,0,0,1,.59-.31c.24,0,.36.27.36.82a2.79,2.79,0,0,1-.8,1.77,7,7,0,0,1-2,1.61,17.82,17.82,0,0,1-2.54,1.15,13.78,13.78,0,0,1-4.58,1A5.23,5.23,0,0,1,25.94,26a4,4,0,0,1-1.52-3.23,8.79,8.79,0,0,1,1-4A12.75,12.75,0,0,1,28,15.29a13.1,13.1,0,0,1,3.63-2.45,10,10,0,0,1,4.1-.93,2.88,2.88,0,0,1,1.75.56A1.78,1.78,0,0,1,38.23,14a4.36,4.36,0,0,1-1,2.34,2.6,2.6,0,0,1-2,1.37c-.77,0-1.16-.37-1.16-1.11a2.41,2.41,0,0,1,.54-1,2.31,2.31,0,0,0,.55-1c0-.17-.07-.26-.2-.26A4.16,4.16,0,0,0,32.9,15a16.42,16.42,0,0,0-2.07,1.44,14.81,14.81,0,0,0-1.76,1.7,6.34,6.34,0,0,0-1.81,4.24,2.23,2.23,0,0,0,.57,1.53,2.44,2.44,0,0,0,1.91.64,11.84,11.84,0,0,0,2.7-.31,13.73,13.73,0,0,0,2.24-.69A12.33,12.33,0,0,0,36.48,22.58Z"/>
    <path class="cls-1" d="M52.94,22.58a13.14,13.14,0,0,0,1.2-.82l.63-.53a1,1,0,0,1,.6-.31c.24,0,.36.27.36.82a2.81,2.81,0,0,1-.81,1.77,6.9,6.9,0,0,1-2,1.61,18.47,18.47,0,0,1-2.55,1.15,13.68,13.68,0,0,1-4.58,1A5.21,5.21,0,0,1,42.4,26a3.94,3.94,0,0,1-1.52-3.23,8.91,8.91,0,0,1,1-4,12.79,12.79,0,0,1,2.56-3.51,13,13,0,0,1,3.63-2.45,9.91,9.91,0,0,1,4.09-.93,2.86,2.86,0,0,1,1.75.56A1.78,1.78,0,0,1,54.68,14a4.28,4.28,0,0,1-1,2.34c-.64.91-1.29,1.37-2,1.37s-1.15-.37-1.15-1.11a2.41,2.41,0,0,1,.54-1,2.36,2.36,0,0,0,.54-1c0-.17-.06-.26-.2-.26a4.16,4.16,0,0,0-2.13.69,16.42,16.42,0,0,0-2.07,1.44,15.61,15.61,0,0,0-1.76,1.7,6.39,6.39,0,0,0-1.81,4.24,2.23,2.23,0,0,0,.57,1.53,2.45,2.45,0,0,0,1.92.64,11.84,11.84,0,0,0,2.7-.31,13.58,13.58,0,0,0,2.23-.69A12.41,12.41,0,0,0,52.94,22.58Z"/>
    <path class="cls-1" d="M70.07,13.08a2.79,2.79,0,0,1-1,2.1,3.11,3.11,0,0,1-2.19.9c-.27,0-.44-.06-.52-.19a.84.84,0,0,1-.13-.5,2.32,2.32,0,0,1,.07-.59,8,8,0,0,0-1.44.66,19.44,19.44,0,0,0-2,1.34c-.78.59-1.16,1-1.16,1.32,0,.1.14.14.42.14A4.46,4.46,0,0,0,63.51,18a4.7,4.7,0,0,1,1.24-.3,1.49,1.49,0,0,1,.46,0,1.45,1.45,0,0,1,.51.55,1.37,1.37,0,0,1,.27.66c0,.17-.16.38-.47.65a3.4,3.4,0,0,1-1.07.6,6.25,6.25,0,0,0-.79.32q-3.81,2.13-3.81,2.92,0,1.41,2.4,1.41a5.79,5.79,0,0,0,3.09-1,25.06,25.06,0,0,0,2.37-1.69c.71-.57,1.15-.93,1.34-1.06a.93.93,0,0,1,.42-.2Q70,20.9,70,22a4.83,4.83,0,0,1-.13,1.38,2.34,2.34,0,0,1-.72.82q-3.87,3.15-7.32,3.15a7.14,7.14,0,0,1-3-.51,3,3,0,0,1-2-2.82q0-2.49,3.45-3.77a1.58,1.58,0,0,1-.88-.79,4.13,4.13,0,0,1-.2-1.53,3.53,3.53,0,0,1,1-2.24,8.08,8.08,0,0,1,2.41-2A12.26,12.26,0,0,1,68.25,12a2.75,2.75,0,0,1,1.21.29A.88.88,0,0,1,70.07,13.08Z"/>
    <path class="cls-1" d="M74.33,23l0,.29a1,1,0,0,0,.35.78,1,1,0,0,0,.63.32,10.66,10.66,0,0,0,3.84-.65c1.11-.43,1.67-.87,1.67-1.3,0-.2-.2-.38-.61-.53a17.77,17.77,0,0,0-2-.56c-1-.23-1.65-.4-2.08-.53a7.52,7.52,0,0,1-1-.35,3.91,3.91,0,0,1-.78-.45,2,2,0,0,1-.85-1.78,3.87,3.87,0,0,1,.88-2.35,7.91,7.91,0,0,1,2.19-2,18.55,18.55,0,0,1,2.84-1.47,13.68,13.68,0,0,1,5-1.24c1.34,0,2.16.28,2.47.86a1.58,1.58,0,0,1,.15.69v.12a2.45,2.45,0,0,1-.41,1.5,3.46,3.46,0,0,1-1.28,1,3.37,3.37,0,0,1-1.39.43,1.7,1.7,0,0,1-.65-.07.71.71,0,0,1-.23-.19.52.52,0,0,0-.22-.17.27.27,0,0,1-.14-.27.7.7,0,0,1,.18-.44,1.23,1.23,0,0,0,.25-.48,7.9,7.9,0,0,0-2.49.55,11.3,11.3,0,0,0-2.23,1.11A12.26,12.26,0,0,0,76.83,17c-.41.38-.62.65-.62.83s.28.31.83.42A27.44,27.44,0,0,1,82,19.49a3.75,3.75,0,0,1,1.62,1.23A2.36,2.36,0,0,1,84,22a3.19,3.19,0,0,1-.92,2.18,7,7,0,0,1-2.27,1.68,11.76,11.76,0,0,1-5.07,1.43,4.92,4.92,0,0,1-3-.66A2,2,0,0,1,72,25a3.17,3.17,0,0,1,.47-1.67,1.35,1.35,0,0,1,1.18-.77C74.09,22.6,74.33,22.73,74.33,23Z"/>
    <path class="cls-1" d="M90.9,23l0,.29a1,1,0,0,0,.34.78,1,1,0,0,0,.63.32,10.58,10.58,0,0,0,3.84-.65c1.12-.43,1.67-.87,1.67-1.3,0-.2-.2-.38-.6-.53a19.07,19.07,0,0,0-2-.56c-1-.23-1.66-.4-2.09-.53a8,8,0,0,1-1-.35,4.56,4.56,0,0,1-.78-.45A2,2,0,0,1,90,18.22a3.93,3.93,0,0,1,.88-2.35,8,8,0,0,1,2.2-2,18,18,0,0,1,2.83-1.47,13.68,13.68,0,0,1,5-1.24c1.34,0,2.16.28,2.48.86a1.74,1.74,0,0,1,.14.69v.12a2.45,2.45,0,0,1-.4,1.5,3.5,3.5,0,0,1-1.29,1,3.37,3.37,0,0,1-1.39.43,1.73,1.73,0,0,1-.65-.07.83.83,0,0,1-.23-.19.47.47,0,0,0-.22-.17.27.27,0,0,1-.14-.27.66.66,0,0,1,.19-.44,1.38,1.38,0,0,0,.25-.48,7.78,7.78,0,0,0-2.49.55,11.4,11.4,0,0,0-2.24,1.11A13,13,0,0,0,93.39,17c-.41.38-.62.65-.62.83s.28.31.84.42a27.26,27.26,0,0,1,4.91,1.28,3.85,3.85,0,0,1,1.63,1.23A2.36,2.36,0,0,1,100.6,22a3.23,3.23,0,0,1-.92,2.18,7.19,7.19,0,0,1-2.28,1.68,11.76,11.76,0,0,1-5.07,1.43,4.94,4.94,0,0,1-3-.66A2,2,0,0,1,88.53,25,3.16,3.16,0,0,1,89,23.37a1.36,1.36,0,0,1,1.18-.77C90.65,22.6,90.9,22.73,90.9,23Z"/>
  </g>
</svg>
